<?xml version="1.0" encoding="utf-8"?>
<!-- Generator: Adobe Illustrator 16.0.0, SVG Export Plug-In . SVG Version: 6.00 Build 0)  -->
<!DOCTYPE svg PUBLIC "-//W3C//DTD SVG 1.1//EN" "http://www.w3.org/Graphics/SVG/1.1/DTD/svg11.dtd">
<svg version="1.1" id="图层_1" xmlns="http://www.w3.org/2000/svg" xmlns:xlink="http://www.w3.org/1999/xlink" x="0px" y="0px"
	 width="632.343px" height="242.664px" viewBox="0 0 632.343 242.664" enable-background="new 0 0 632.343 242.664"
	 xml:space="preserve">
<linearGradient id="SVGID_1_" gradientUnits="userSpaceOnUse" x1="480.439" y1="-334.4688" x2="596.7847" y2="-334.4688" gradientTransform="matrix(1 0 0 -1 -104.4497 -121.7832)">
	<stop  offset="0" style="stop-color:#FF94F9"/>
	<stop  offset="0.25" style="stop-color:#F5C8FF"/>
	<stop  offset="0.5" style="stop-color:#FFFFFF"/>
	<stop  offset="0.75" style="stop-color:#FFC7F7"/>
	<stop  offset="1" style="stop-color:#FF94F1"/>
</linearGradient>
<rect x="375.99" y="202.566" fill="url(#SVGID_1_)" width="116.346" height="20.238"/>
<linearGradient id="SVGID_2_" gradientUnits="userSpaceOnUse" x1="478.9966" y1="-115.0327" x2="478.9966" y2="-173.9282" gradientTransform="matrix(1 0 0 -1 -104.4497 -121.7832)">
	<stop  offset="0" style="stop-color:#F8A581"/>
	<stop  offset="0.25" style="stop-color:#F5B195"/>
	<stop  offset="0.5" style="stop-color:#F7BDA4"/>
	<stop  offset="0.75" style="stop-color:#F5B195"/>
	<stop  offset="1" style="stop-color:#F8A581"/>
</linearGradient>
<path fill="url(#SVGID_2_)" d="M339.375,37.42c0-8.129,15.75-14.723,35.174-14.723c19.422,0,35.172,6.594,35.172,14.723
	c0,8.131-15.75,14.725-35.172,14.725C355.125,52.145,339.375,45.551,339.375,37.42z"/>
<path fill="none" stroke="#ED7D31" stroke-width="1.56" stroke-miterlimit="10" d="M339.375,37.42
	c0-8.129,15.75-14.723,35.174-14.723c19.422,0,35.172,6.594,35.172,14.723c0,8.131-15.75,14.725-35.172,14.725
	C355.125,52.145,339.375,45.551,339.375,37.42z"/>
<g>
	<text transform="matrix(1 0 0 1 354.4897 35.4893)" font-family="'TimesNewRomanPSMT'" font-size="8.424">G</text>
	<text transform="matrix(1 0 0 1 360.5396 35.4893)" font-family="'TimesNewRomanPSMT'" font-size="8.424">E</text>
	<text transform="matrix(1 0 0 1 365.6597 35.4893)" font-family="'TimesNewRomanPSMT'" font-size="8.424">N</text>
	<text transform="matrix(1 0 0 1 371.7095 35.4893)" font-family="'TimesNewRomanPSMT'" font-size="8.424">C</text>
	<text transform="matrix(1 0 0 1 377.3276 35.4893)" font-family="'TimesNewRomanPSMT'" font-size="8.424">OD</text>
	<text transform="matrix(1 0 0 1 389.4272 35.4893)" font-family="'TimesNewRomanPSMT'" font-size="8.424">E</text>
	<text transform="matrix(1 0 0 1 394.5483 35.4893)" font-family="'TimesNewRomanPSMT'" font-size="8.424"> </text>
</g>
<g>
	<text transform="matrix(1 0 0 1 358.0894 45.5684)" font-family="'TimesNewRomanPSMT'" font-size="8.424">sno</text>
	<text transform="matrix(1 0 0 1 369.8423 45.5684)" font-family="'TimesNewRomanPSMT'" font-size="8.424">R</text>
	<text transform="matrix(1 0 0 1 375.4604 45.5684)" font-family="'TimesNewRomanPSMT'" font-size="8.424">NA</text>
	<text transform="matrix(1 0 0 1 387.562 45.5684)" font-family="'TimesNewRomanPSMT'" font-size="8.424">s</text>
</g>
<linearGradient id="SVGID_3_" gradientUnits="userSpaceOnUse" x1="582.4604" y1="-114.2407" x2="582.4604" y2="-173.1362" gradientTransform="matrix(1 0 0 -1 -104.4497 -121.7832)">
	<stop  offset="0" style="stop-color:#F8A581"/>
	<stop  offset="0.25" style="stop-color:#F5B195"/>
	<stop  offset="0.5" style="stop-color:#F7BDA4"/>
	<stop  offset="0.75" style="stop-color:#F5B195"/>
	<stop  offset="1" style="stop-color:#F8A581"/>
</linearGradient>
<ellipse fill="url(#SVGID_3_)" cx="478.011" cy="36.629" rx="34.813" ry="14.724"/>
<ellipse fill="none" stroke="#ED7D31" stroke-width="1.56" stroke-miterlimit="10" cx="478.011" cy="36.629" rx="34.813" ry="14.724"/>
<g>
	<text transform="matrix(1 0 0 1 467.0562 34.6846)" font-family="'TimesNewRomanPSMT'" font-size="8.424">U</text>
	<text transform="matrix(1 0 0 1 473.1069 34.6846)" font-family="'TimesNewRomanPSMT'" font-size="8.424">CSC </text>
</g>
<g>
	<text transform="matrix(1 0 0 1 461.5835 44.7646)" font-family="'TimesNewRomanPSMT'" font-size="8.424">sn</text>
	<text transform="matrix(1 0 0 1 469.1069 44.7646)" font-family="'TimesNewRomanPSMT'" font-size="8.424">o</text>
	<text transform="matrix(1 0 0 1 473.3452 44.7646)" font-family="'TimesNewRomanPSMT'" font-size="8.424">R</text>
	<text transform="matrix(1 0 0 1 478.9624 44.7646)" font-family="'TimesNewRomanPSMT'" font-size="8.424">NA</text>
	<text transform="matrix(1 0 0 1 491.062 44.7646)" font-family="'TimesNewRomanPSMT'" font-size="8.424">s</text>
</g>
<line fill="none" stroke="#5B9BD5" stroke-width="1.56" stroke-miterlimit="10" x1="373.503" y1="52.578" x2="373.503" y2="68.819"/>
<line fill="none" stroke="#5B9BD5" stroke-width="1.56" stroke-miterlimit="10" x1="480.496" y1="51.786" x2="480.496" y2="69.228"/>
<line fill="none" stroke="#5B9BD5" stroke-width="1.56" stroke-miterlimit="10" x1="373.144" y1="68.849" x2="481.156" y2="69.684"/>
<path fill="#5B9BD5" d="M434.343,102.395l-1.799,3.6l-1.801-3.6H434.343z M433.011,69.713v33.282h-0.936V69.713H433.011z"/>
<linearGradient id="SVGID_4_" gradientUnits="userSpaceOnUse" x1="527.9136" y1="-208.8486" x2="527.9136" y2="-247.584" gradientTransform="matrix(1 0 0 -1 -104.4497 -121.7832)">
	<stop  offset="0" style="stop-color:#F8A581"/>
	<stop  offset="0.25" style="stop-color:#F5B195"/>
	<stop  offset="0.5" style="stop-color:#F7BDA4"/>
	<stop  offset="0.75" style="stop-color:#F5B195"/>
	<stop  offset="1" style="stop-color:#F8A581"/>
</linearGradient>
<rect x="362.935" y="106.433" fill="url(#SVGID_4_)" width="121.059" height="19.368"/>
<rect x="364.478" y="106.434" fill="none" stroke="#ED7D31" stroke-width="1.56" stroke-miterlimit="10" width="119.857" height="19.368"/>
<g>
	<text transform="matrix(1 0 0 1 387.562 119.2129)" font-family="'TimesNewRomanPSMT'" font-size="8.424">1524</text>
	<text transform="matrix(1 0 0 1 398.1538 119.2129)" font-family="'TimesNewRomanPSMT'" font-size="8.424"> </text>
</g>
<g>
	<text transform="matrix(1 0 0 1 407.2358 119.2129)" font-family="'TimesNewRomanPSMT'" font-size="8.424">sn</text>
	<text transform="matrix(1 0 0 1 414.7593 119.2129)" font-family="'TimesNewRomanPSMT'" font-size="8.424">o</text>
	<text transform="matrix(1 0 0 1 418.9976 119.2129)" font-family="'TimesNewRomanPSMT'" font-size="8.424">R</text>
	<text transform="matrix(1 0 0 1 424.6147 119.2129)" font-family="'TimesNewRomanPSMT'" font-size="8.424">NA genes</text>
</g>
<linearGradient id="SVGID_5_" gradientUnits="userSpaceOnUse" x1="308.6455" y1="-106.6084" x2="308.6455" y2="-156.2881" gradientTransform="matrix(1 0 0 -1 -104.4497 -121.7832)">
	<stop  offset="0" style="stop-color:#9CCA86"/>
	<stop  offset="0.25" style="stop-color:#AACE99"/>
	<stop  offset="0.5" style="stop-color:#B5D5A7"/>
	<stop  offset="0.75" style="stop-color:#AACE99"/>
	<stop  offset="1" style="stop-color:#9CCA86"/>
</linearGradient>
<rect x="160.744" y="9.665" fill="url(#SVGID_5_)" width="86.904" height="24.84"/>
<rect x="160.744" y="9.665" fill="none" stroke="#70AD47" stroke-width="1.56" stroke-miterlimit="10" width="86.904" height="24.84"/>
<g>
	<text transform="matrix(1 0 0 1 170.0376 20.1299)" font-family="'TimesNewRomanPSMT'" font-size="8.424">s</text>
	<text transform="matrix(1 0 0 1 173.3325 20.1299)" font-family="'TimesNewRomanPSMT'" font-size="8.424">m</text>
	<text transform="matrix(1 0 0 1 179.7505 20.1299)" font-family="'TimesNewRomanPSMT'" font-size="8.424">R</text>
	<text transform="matrix(1 0 0 1 185.3687 20.1299)" font-family="'TimesNewRomanPSMT'" font-size="8.424">N</text>
	<text transform="matrix(1 0 0 1 191.4189 20.1299)" font-family="'TimesNewRomanPSMT'" font-size="8.424">A</text>
</g>
<g>
	<text transform="matrix(1 0 0 1 197.4688 20.1299)" font-family="'TimesNewRomanPSMT'" font-size="8.424">-</text>
</g>
<g>
	<text transform="matrix(1 0 0 1 200.2769 20.1299)" font-family="'TimesNewRomanPSMT'" font-size="8.424">Seq</text>
</g>
<g>
	<text transform="matrix(1 0 0 1 215.1089 20.1299)" font-family="'TimesNewRomanPSMT'" font-size="8.424">d</text>
	<text transform="matrix(1 0 0 1 219.3462 20.1299)" font-family="'TimesNewRomanPSMT'" font-size="8.424">a</text>
	<text transform="matrix(1 0 0 1 223.0854 20.1299)" font-family="'TimesNewRomanPSMT'" font-size="8.424">t</text>
	<text transform="matrix(1 0 0 1 225.4507 20.1299)" font-family="'TimesNewRomanPSMT'" font-size="8.424">a</text>
	<text transform="matrix(1 0 0 1 229.1895 20.1299)" font-family="'TimesNewRomanPSMT'" font-size="8.424"> </text>
	<text transform="matrix(1 0 0 1 231.2114 20.1299)" font-family="'TimesNewRomanPSMT'" font-size="8.424">o</text>
	<text transform="matrix(1 0 0 1 235.4492 20.1299)" font-family="'TimesNewRomanPSMT'" font-size="8.424">f </text>
</g>
<g>
	<text transform="matrix(1 0 0 1 166.8687 30.209)" font-family="'TimesNewRomanPSMT'" font-size="8.424">1</text>
	<text transform="matrix(1 0 0 1 171.106 30.209)" font-family="'TimesNewRomanPSMT'" font-size="8.424">6</text>
	<text transform="matrix(1 0 0 1 175.335 30.209)" font-family="'TimesNewRomanPSMT'" font-size="8.424">5</text>
	<text transform="matrix(1 0 0 1 179.5718 30.209)" font-family="'TimesNewRomanPSMT'" font-size="8.424">91</text>
	<text transform="matrix(1 0 0 1 188.0293 30.209)" font-family="'TimesNewRomanPSMT'" font-size="8.424"> </text>
	<text transform="matrix(1 0 0 1 189.7646 30.209)" font-family="'TimesNewRomanPSMT'" font-size="8.424">T</text>
	<text transform="matrix(1 0 0 1 194.8853 30.209)" font-family="'TimesNewRomanPSMT'" font-size="8.424">C</text>
	<text transform="matrix(1 0 0 1 200.5044 30.209)" font-family="'TimesNewRomanPSMT'" font-size="8.424">G</text>
	<text transform="matrix(1 0 0 1 206.5537 30.209)" font-family="'TimesNewRomanPSMT'" font-size="8.424">A samples</text>
</g>
<line fill="none" stroke="#5B9BD5" stroke-width="1.56" stroke-miterlimit="10" x1="432.544" y1="125.801" x2="432.544" y2="147.018"/>
<line fill="none" stroke="#5B9BD5" stroke-width="1.56" stroke-miterlimit="10" x1="206.104" y1="146.969" x2="433.431" y2="146.969"/>
<path fill="none" stroke="#5B9BD5" stroke-width="1.56" stroke-miterlimit="10" d="M292.863,164.124l-1.8,3.601l-1.8-3.601H292.863z
	 M291.531,147.761v16.964h-0.935v-16.964H291.531z"/>
<linearGradient id="SVGID_6_" gradientUnits="userSpaceOnUse" x1="308.9702" y1="-151.584" x2="308.9702" y2="-195.0723" gradientTransform="matrix(1 0 0 -1 -104.4497 -121.7832)">
	<stop  offset="0" style="stop-color:#9CCA86"/>
	<stop  offset="0.25" style="stop-color:#AACE99"/>
	<stop  offset="0.5" style="stop-color:#B5D5A7"/>
	<stop  offset="0.75" style="stop-color:#AACE99"/>
	<stop  offset="1" style="stop-color:#9CCA86"/>
</linearGradient>
<rect x="161.104" y="51.545" fill="url(#SVGID_6_)" width="86.833" height="21.744"/>
<rect x="161.104" y="51.545" fill="none" stroke="#70AD47" stroke-width="1.56" stroke-miterlimit="10" width="86.833" height="21.744"/>
<g>
	<text transform="matrix(1 0 0 1 169.4609 65.4893)" font-family="'TimesNewRomanPSMT'" font-size="8.424">F</text>
	<text transform="matrix(1 0 0 1 174.1455 65.4893)" font-family="'TimesNewRomanPSMT'" font-size="8.424">ilt</text>
	<text transform="matrix(1 0 0 1 181.2422 65.4893)" font-family="'TimesNewRomanPSMT'" font-size="8.424">er</text>
	<text transform="matrix(1 0 0 1 187.7871 65.4893)" font-family="'TimesNewRomanPSMT'" font-size="8.424"> </text>
	<text transform="matrix(1 0 0 1 189.6733 65.4893)" font-family="'TimesNewRomanPSMT'" font-size="8.424">re</text>
	<text transform="matrix(1 0 0 1 196.2183 65.4893)" font-family="'TimesNewRomanPSMT'" font-size="8.424">p</text>
	<text transform="matrix(1 0 0 1 200.4639 65.4893)" font-family="'TimesNewRomanPSMT'" font-size="8.424">ea</text>
	<text transform="matrix(1 0 0 1 207.9424 65.4893)" font-family="'TimesNewRomanPSMT'" font-size="8.424">t</text>
	<text transform="matrix(1 0 0 1 210.3159 65.4893)" font-family="'TimesNewRomanPSMT'" font-size="8.424"> </text>
	<text transform="matrix(1 0 0 1 212.3296 65.4893)" font-family="'TimesNewRomanPSMT'" font-size="8.424">s</text>
	<text transform="matrix(1 0 0 1 215.625 65.4893)" font-family="'TimesNewRomanPSMT'" font-size="8.424">a</text>
	<text transform="matrix(1 0 0 1 219.3628 65.4893)" font-family="'TimesNewRomanPSMT'" font-size="8.424">m</text>
	<text transform="matrix(1 0 0 1 225.7817 65.4893)" font-family="'TimesNewRomanPSMT'" font-size="8.424">pl</text>
	<text transform="matrix(1 0 0 1 232.3843 65.4893)" font-family="'TimesNewRomanPSMT'" font-size="8.424">es</text>
</g>
<path fill="#5B9BD5" d="M208.479,45.371l-1.8,3.6l-1.8-3.6H208.479z M207.147,35.009v10.962h-0.936V35.009H207.147z"/>
<line fill="none" stroke="#5B9BD5" stroke-width="1.56" stroke-miterlimit="10" x1="206.679" y1="130.48" x2="206.679" y2="146.495"/>
<linearGradient id="SVGID_7_" gradientUnits="userSpaceOnUse" x1="308.6455" y1="-213.6729" x2="308.6455" y2="-252.2656" gradientTransform="matrix(1 0 0 -1 -104.4497 -121.7832)">
	<stop  offset="0" style="stop-color:#9CCA86"/>
	<stop  offset="0.25" style="stop-color:#AACE99"/>
	<stop  offset="0.5" style="stop-color:#B5D5A7"/>
	<stop  offset="0.75" style="stop-color:#AACE99"/>
	<stop  offset="1" style="stop-color:#9CCA86"/>
</linearGradient>
<rect x="160.744" y="111.186" fill="url(#SVGID_7_)" width="86.904" height="19.296"/>
<rect x="160.744" y="111.186" fill="none" stroke="#70AD47" stroke-width="1.56" stroke-miterlimit="10" width="86.904" height="19.296"/>
<g>
	<text transform="matrix(1 0 0 1 166.8687 123.9229)" font-family="'TimesNewRomanPSMT'" font-size="8.424">1</text>
	<text transform="matrix(1 0 0 1 171.106 123.9229)" font-family="'TimesNewRomanPSMT'" font-size="8.424">0</text>
	<text transform="matrix(1 0 0 1 175.335 123.9229)" font-family="'TimesNewRomanPSMT'" font-size="8.424">5</text>
	<text transform="matrix(1 0 0 1 179.5718 123.9229)" font-family="'TimesNewRomanPSMT'" font-size="8.424">94</text>
	<text transform="matrix(1 0 0 1 188.0293 123.9229)" font-family="'TimesNewRomanPSMT'" font-size="8.424"> </text>
	<text transform="matrix(1 0 0 1 189.7646 123.9229)" font-family="'TimesNewRomanPSMT'" font-size="8.424">T</text>
	<text transform="matrix(1 0 0 1 194.8853 123.9229)" font-family="'TimesNewRomanPSMT'" font-size="8.424">C</text>
	<text transform="matrix(1 0 0 1 200.5044 123.9229)" font-family="'TimesNewRomanPSMT'" font-size="8.424">G</text>
	<text transform="matrix(1 0 0 1 206.5537 123.9229)" font-family="'TimesNewRomanPSMT'" font-size="8.424">A samples</text>
</g>
<path fill="#5B9BD5" d="M208.696,108.03l-1.8,3.6l-1.8-3.6H208.696z M207.363,73.361v35.269h-0.937V73.361H207.363z"/>
<g>
	<text transform="matrix(1 0 0 1 208.125 85.9668)" font-family="'TimesNewRomanPSMT'" font-size="8.424">Q</text>
	<text transform="matrix(1 0 0 1 214.1753 85.9668)" font-family="'TimesNewRomanPSMT'" font-size="8.424">u</text>
	<text transform="matrix(1 0 0 1 218.4126 85.9668)" font-family="'TimesNewRomanPSMT'" font-size="8.424">a</text>
	<text transform="matrix(1 0 0 1 222.1509 85.9668)" font-family="'TimesNewRomanPSMT'" font-size="8.424">lit</text>
	<text transform="matrix(1 0 0 1 229.2485 85.9668)" font-family="'TimesNewRomanPSMT'" font-size="8.424">y</text>
	<text transform="matrix(1 0 0 1 233.3501 85.9668)" font-family="'TimesNewRomanPSMT'" font-size="8.424"> </text>
	<text transform="matrix(1 0 0 1 235.3726 85.9668)" font-family="'TimesNewRomanPSMT'" font-size="8.424">c</text>
	<text transform="matrix(1 0 0 1 239.1113 85.9668)" font-family="'TimesNewRomanPSMT'" font-size="8.424">o</text>
	<text transform="matrix(1 0 0 1 243.3569 85.9668)" font-family="'TimesNewRomanPSMT'" font-size="8.424">n</text>
	<text transform="matrix(1 0 0 1 247.5854 85.9668)" font-family="'TimesNewRomanPSMT'" font-size="8.424">t</text>
	<text transform="matrix(1 0 0 1 249.9512 85.9668)" font-family="'TimesNewRomanPSMT'" font-size="8.424">r</text>
	<text transform="matrix(1 0 0 1 252.7563 85.9668)" font-family="'TimesNewRomanPSMT'" font-size="8.424">o</text>
	<text transform="matrix(1 0 0 1 256.9941 85.9668)" font-family="'TimesNewRomanPSMT'" font-size="8.424">l</text>
	<text transform="matrix(1 0 0 1 259.3096 85.9668)" font-family="'TimesNewRomanPSMT'" font-size="8.424">:</text>
	<text transform="matrix(1 0 0 1 261.6753 85.9668)" font-family="'TimesNewRomanPSMT'" font-size="8.424"> </text>
</g>
<g>
	<text transform="matrix(1 0 0 1 208.125 96.0469)" font-family="'TimesNewRomanPSMT'" font-size="8.424">Q</text>
	<text transform="matrix(1 0 0 1 214.1753 96.0469)" font-family="'TimesNewRomanPSMT'" font-size="8.424">C</text>
</g>
<g>
	<text transform="matrix(1 0 0 1 219.3462 96.0469)" font-family="'TimesNewRomanPSMT'" font-size="8.424">-passed reads </text>
	<text transform="matrix(1 0 0 1 266.5952 96.0469)" font-family="'ArialMT'" font-size="8.424">≥ 50%;</text>
	<text transform="matrix(1 0 0 1 292.7603 96.0469)" font-family="'TimesNewRomanPSMT'" font-size="8.424"> </text>
</g>
<g>
	<text transform="matrix(1 0 0 1 262.9077 96.6953)" font-family="'ArialMT'" font-size="8.424"> </text>
	<text transform="matrix(1 0 0 1 275.4517 96.6953)" font-family="'ArialMT'" font-size="8.424"> </text>
	<text transform="matrix(1 0 0 1 292.207 96.6953)" font-family="'ArialMT'" font-size="8.424"> </text>
</g>
<g>
	<text transform="matrix(1 0 0 1 208.125 106.127)" font-family="'TimesNewRomanPSMT'" font-size="8.424">Rea</text>
	<text transform="matrix(1 0 0 1 221.2222 106.127)" font-family="'TimesNewRomanPSMT'" font-size="8.424">d</text>
	<text transform="matrix(1 0 0 1 225.4678 106.127)" font-family="'TimesNewRomanPSMT'" font-size="8.424">s</text>
	<text transform="matrix(1 0 0 1 228.7622 106.127)" font-family="'TimesNewRomanPSMT'" font-size="8.424"> </text>
	<text transform="matrix(1 0 0 1 230.8687 106.127)" font-family="'TimesNewRomanPSMT'" font-size="8.424">m</text>
	<text transform="matrix(1 0 0 1 237.2695 106.127)" font-family="'TimesNewRomanPSMT'" font-size="8.424">a</text>
	<text transform="matrix(1 0 0 1 241.0083 106.127)" font-family="'TimesNewRomanPSMT'" font-size="8.424">p</text>
	<text transform="matrix(1 0 0 1 245.2461 106.127)" font-family="'TimesNewRomanPSMT'" font-size="8.424">p</text>
	<text transform="matrix(1 0 0 1 249.4746 106.127)" font-family="'TimesNewRomanPSMT'" font-size="8.424">e</text>
	<text transform="matrix(1 0 0 1 253.2134 106.127)" font-family="'TimesNewRomanPSMT'" font-size="8.424">d</text>
	<text transform="matrix(1 0 0 1 257.4595 106.127)" font-family="'TimesNewRomanPSMT'" font-size="8.424"> </text>
</g>
<g>
	<text transform="matrix(1 0 0 1 259.605 106.127)" font-family="'TimesNewRomanPSMT'" font-size="8.424">t</text>
	<text transform="matrix(1 0 0 1 262.6753 105.7412)" font-family="'TimesNewRomanPSMT'" font-size="8.424">o human genome </text>
	<text transform="matrix(1 0 0 1 322.7993 105.7412)" font-family="'ArialMT'" font-size="8.424">≥ 80%</text>
	<text transform="matrix(1 0 0 1 346.6226 105.7412)" font-family="'TimesNewRomanPSMT'" font-size="8.424">    </text>
</g>
<g>
	<text transform="matrix(1 0 0 1 434.5659 93.209)" font-family="'TimesNewRomanPSMT'" font-size="8.424">Me</text>
	<text transform="matrix(1 0 0 1 445.7944 93.209)" font-family="'TimesNewRomanPSMT'" font-size="8.424">r</text>
	<text transform="matrix(1 0 0 1 448.4644 93.209)" font-family="'TimesNewRomanPSMT'" font-size="8.424">g</text>
	<text transform="matrix(1 0 0 1 452.6929 93.209)" font-family="'TimesNewRomanPSMT'" font-size="8.424">e</text>
	<text transform="matrix(1 0 0 1 456.4331 93.209)" font-family="'TimesNewRomanPSMT'" font-size="8.424"> </text>
	<text transform="matrix(1 0 0 1 458.4546 93.209)" font-family="'TimesNewRomanPSMT'" font-size="8.424">ov</text>
	<text transform="matrix(1 0 0 1 466.9136 93.209)" font-family="'TimesNewRomanPSMT'" font-size="8.424">er</text>
	<text transform="matrix(1 0 0 1 473.4565 93.209)" font-family="'TimesNewRomanPSMT'" font-size="8.424">l</text>
	<text transform="matrix(1 0 0 1 475.8315 93.209)" font-family="'TimesNewRomanPSMT'" font-size="8.424">a</text>
	<text transform="matrix(1 0 0 1 479.5698 93.209)" font-family="'TimesNewRomanPSMT'" font-size="8.424">p</text>
	<text transform="matrix(1 0 0 1 483.8159 93.209)" font-family="'TimesNewRomanPSMT'" font-size="8.424">p</text>
	<text transform="matrix(1 0 0 1 488.0425 93.209)" font-family="'TimesNewRomanPSMT'" font-size="8.424">e</text>
	<text transform="matrix(1 0 0 1 491.7847 93.209)" font-family="'TimesNewRomanPSMT'" font-size="8.424">d</text>
	<text transform="matrix(1 0 0 1 495.9624 93.209)" font-family="'TimesNewRomanPSMT'" font-size="8.424"> </text>
	<text transform="matrix(1 0 0 1 497.8394 93.209)" font-family="'TimesNewRomanPSMT'" font-size="8.424">g</text>
	<text transform="matrix(1 0 0 1 502.0698 93.209)" font-family="'TimesNewRomanPSMT'" font-size="8.424">e</text>
	<text transform="matrix(1 0 0 1 505.8081 93.209)" font-family="'TimesNewRomanPSMT'" font-size="8.424">n</text>
	<text transform="matrix(1 0 0 1 510.0444 93.209)" font-family="'TimesNewRomanPSMT'" font-size="8.424">es</text>
</g>
<linearGradient id="SVGID_8_" gradientUnits="userSpaceOnUse" x1="695.2827" y1="-126.9507" x2="695.2827" y2="-165.6841" gradientTransform="matrix(1 0 0 -1 -104.4497 -121.7832)">
	<stop  offset="0" style="stop-color:#92B9E4"/>
	<stop  offset="0.25" style="stop-color:#A3C1E5"/>
	<stop  offset="0.5" style="stop-color:#B1CBE9"/>
	<stop  offset="0.75" style="stop-color:#A3C1E5"/>
	<stop  offset="1" style="stop-color:#92B9E4"/>
</linearGradient>
<rect x="558.482" y="24.534" fill="url(#SVGID_8_)" width="64.703" height="19.367"/>
<rect x="558.482" y="24.534" fill="none" stroke="#5B9BD5" stroke-width="1.56" stroke-miterlimit="10" width="64.703" height="19.367"/>
<g>
	<text transform="matrix(1 0 0 1 577.5815 37.3604)" font-family="'TimesNewRomanPSMT'" font-size="8.424">S</text>
	<text transform="matrix(1 0 0 1 582.2671 37.3604)" font-family="'TimesNewRomanPSMT'" font-size="8.424">ub</text>
	<text transform="matrix(1 0 0 1 590.7241 37.3604)" font-family="'TimesNewRomanPSMT'" font-size="8.424">t</text>
	<text transform="matrix(1 0 0 1 593.0913 37.3604)" font-family="'TimesNewRomanPSMT'" font-size="8.424">y</text>
	<text transform="matrix(1 0 0 1 597.2026 37.3604)" font-family="'TimesNewRomanPSMT'" font-size="8.424">p</text>
	<text transform="matrix(1 0 0 1 601.4292 37.3604)" font-family="'TimesNewRomanPSMT'" font-size="8.424">e</text>
</g>
<linearGradient id="SVGID_9_" gradientUnits="userSpaceOnUse" x1="695.2827" y1="-161.7236" x2="695.2827" y2="-200.4609" gradientTransform="matrix(1 0 0 -1 -104.4497 -121.7832)">
	<stop  offset="0" style="stop-color:#92B9E4"/>
	<stop  offset="0.25" style="stop-color:#A3C1E5"/>
	<stop  offset="0.5" style="stop-color:#B1CBE9"/>
	<stop  offset="0.75" style="stop-color:#A3C1E5"/>
	<stop  offset="1" style="stop-color:#92B9E4"/>
</linearGradient>
<rect x="558.482" y="59.309" fill="url(#SVGID_9_)" width="64.703" height="19.369"/>
<rect x="558.482" y="59.309" fill="none" stroke="#5B9BD5" stroke-width="1.56" stroke-miterlimit="10" width="64.703" height="19.369"/>
<g>
	<text transform="matrix(1 0 0 1 582.0464 72.0957)" font-family="'TimesNewRomanPSMT'" font-size="8.424">S</text>
	<text transform="matrix(1 0 0 1 586.73 72.0957)" font-family="'TimesNewRomanPSMT'" font-size="8.424">t</text>
	<text transform="matrix(1 0 0 1 589.0972 72.0957)" font-family="'TimesNewRomanPSMT'" font-size="8.424">a</text>
	<text transform="matrix(1 0 0 1 592.8354 72.0957)" font-family="'TimesNewRomanPSMT'" font-size="8.424">g</text>
	<text transform="matrix(1 0 0 1 597.0718 72.0957)" font-family="'TimesNewRomanPSMT'" font-size="8.424">e </text>
</g>
<linearGradient id="SVGID_10_" gradientUnits="userSpaceOnUse" x1="696.5093" y1="-194.3408" x2="696.5093" y2="-233.0771" gradientTransform="matrix(1 0 0 -1 -104.4497 -121.7832)">
	<stop  offset="0" style="stop-color:#92B9E4"/>
	<stop  offset="0.25" style="stop-color:#A3C1E5"/>
	<stop  offset="0.5" style="stop-color:#B1CBE9"/>
	<stop  offset="0.75" style="stop-color:#A3C1E5"/>
	<stop  offset="1" style="stop-color:#92B9E4"/>
</linearGradient>
<rect x="559.708" y="91.926" fill="url(#SVGID_10_)" width="64.703" height="19.368"/>
<rect x="559.708" y="91.926" fill="none" stroke="#5B9BD5" stroke-width="1.56" stroke-miterlimit="10" width="64.703" height="19.368"/>
<g>
	<text transform="matrix(1 0 0 1 578.3198 104.7412)" font-family="'TimesNewRomanPSMT'" font-size="8.424">S</text>
	<text transform="matrix(1 0 0 1 583.0054 104.7412)" font-family="'TimesNewRomanPSMT'" font-size="8.424">u</text>
	<text transform="matrix(1 0 0 1 587.2358 104.7412)" font-family="'TimesNewRomanPSMT'" font-size="8.424">r</text>
	<text transform="matrix(1 0 0 1 590.0405 104.7412)" font-family="'TimesNewRomanPSMT'" font-size="8.424">vi</text>
	<text transform="matrix(1 0 0 1 596.644 104.7412)" font-family="'TimesNewRomanPSMT'" font-size="8.424">v</text>
	<text transform="matrix(1 0 0 1 600.8296 104.7412)" font-family="'TimesNewRomanPSMT'" font-size="8.424">al</text>
</g>
<line fill="none" stroke="#5B9BD5" stroke-width="1.56" stroke-miterlimit="10" x1="547.503" y1="34.361" x2="558.521" y2="34.361"/>
<line fill="none" stroke="#5B9BD5" stroke-width="1.56" stroke-miterlimit="10" x1="547.503" y1="68.489" x2="558.521" y2="68.489"/>
<line fill="none" stroke="#5B9BD5" stroke-width="1.56" stroke-miterlimit="10" x1="547.503" y1="102.809" x2="558.521" y2="102.809"/>
<line fill="none" stroke="#5B9BD5" stroke-width="1.56" stroke-miterlimit="10" x1="547.503" y1="34.29" x2="547.503" y2="103.168"/>
<line fill="none" stroke="#5B9BD5" stroke-width="1.56" stroke-miterlimit="10" x1="536.486" y1="87.353" x2="547.503" y2="87.353"/>
<line fill="none" stroke="#5B9BD5" stroke-width="1.56" stroke-miterlimit="10" x1="536.56" y1="86.561" x2="536.56" y2="180.001"/>
<path fill="none" stroke="#5B9BD5" stroke-width="1.56" stroke-miterlimit="10" d="M435.208,195.588l-1.801,3.6l-1.801-3.6H435.208z
	 M433.875,179.227v16.963h-0.934v-16.963H433.875z"/>
<line fill="none" stroke="#5B9BD5" stroke-width="1.56" stroke-miterlimit="10" x1="338.705" y1="179.152" x2="536.482" y2="179.584"/>
<path fill="none" stroke="#5B9BD5" stroke-width="1.56" stroke-miterlimit="10" d="M632.271,87.665"/>
<path fill="none" stroke="#5B9BD5" stroke-width="1.56" stroke-miterlimit="10" d="M632.343,86.874"/>
<linearGradient id="SVGID_11_" gradientUnits="userSpaceOnUse" x1="335.9663" y1="-300.936" x2="452.312" y2="-300.936" gradientTransform="matrix(1 0 0 -1 -104.4497 -121.7832)">
	<stop  offset="0" style="stop-color:#FF94F9"/>
	<stop  offset="0.25" style="stop-color:#F5C8FF"/>
	<stop  offset="0.5" style="stop-color:#FFFFFF"/>
	<stop  offset="0.75" style="stop-color:#FFC7F7"/>
	<stop  offset="1" style="stop-color:#FF94F1"/>
</linearGradient>
<rect x="231.517" y="169.034" fill="url(#SVGID_11_)" width="116.346" height="20.237"/>
<rect x="231.517" y="169.034" fill="none" stroke="#FF32E0" stroke-width="1.56" stroke-miterlimit="10" width="116.346" height="20.237"/>
<rect x="375.99" y="202.566" fill="none" stroke="#FF32E0" stroke-width="1.56" stroke-miterlimit="10" width="116.346" height="20.238"/>
<linearGradient id="SVGID_12_" gradientUnits="userSpaceOnUse" x1="156.8687" y1="-114.1309" x2="156.8687" y2="-152.8691" gradientTransform="matrix(1 0 0 -1 -104.4497 -121.7832)">
	<stop  offset="0" style="stop-color:#FFD479"/>
	<stop  offset="0.25" style="stop-color:#FFD78E"/>
	<stop  offset="0.5" style="stop-color:#FFDD9C"/>
	<stop  offset="0.75" style="stop-color:#FFD78E"/>
	<stop  offset="1" style="stop-color:#FFD479"/>
</linearGradient>
<rect x="13.467" y="11.717" fill="url(#SVGID_12_)" width="77.904" height="19.369"/>
<rect x="13.467" y="11.717" fill="none" stroke="#FFC000" stroke-width="1.56" stroke-miterlimit="10" width="77.904" height="19.369"/>
<g>
	<text transform="matrix(1 0 0 1 21.2856 24.4912)" font-family="'TimesNewRomanPSMT'" font-size="8.424">Copy number data</text>
</g>
<linearGradient id="SVGID_13_" gradientUnits="userSpaceOnUse" x1="156.8687" y1="-148.834" x2="156.8687" y2="-187.5723" gradientTransform="matrix(1 0 0 -1 -104.4497 -121.7832)">
	<stop  offset="0" style="stop-color:#FFD479"/>
	<stop  offset="0.25" style="stop-color:#FFD78E"/>
	<stop  offset="0.5" style="stop-color:#FFDD9C"/>
	<stop  offset="0.75" style="stop-color:#FFD78E"/>
	<stop  offset="1" style="stop-color:#FFD479"/>
</linearGradient>
<rect x="13.467" y="46.42" fill="url(#SVGID_13_)" width="77.904" height="19.369"/>
<rect x="13.467" y="46.42" fill="none" stroke="#FFC000" stroke-width="1.56" stroke-miterlimit="10" width="77.904" height="19.369"/>
<g>
	<text transform="matrix(1 0 0 1 31.7246 59.2246)" font-family="'TimesNewRomanPSMT'" font-size="8.424">Me</text>
	<text transform="matrix(1 0 0 1 42.9526 59.2246)" font-family="'TimesNewRomanPSMT'" font-size="8.424">t</text>
	<text transform="matrix(1 0 0 1 45.3193 59.2246)" font-family="'TimesNewRomanPSMT'" font-size="8.424">h</text>
	<text transform="matrix(1 0 0 1 49.5493 59.2246)" font-family="'TimesNewRomanPSMT'" font-size="8.424">y</text>
	<text transform="matrix(1 0 0 1 53.6592 59.2246)" font-family="'TimesNewRomanPSMT'" font-size="8.424">l</text>
	<text transform="matrix(1 0 0 1 56.0244 59.2246)" font-family="'TimesNewRomanPSMT'" font-size="8.424">a</text>
	<text transform="matrix(1 0 0 1 59.7642 59.2246)" font-family="'TimesNewRomanPSMT'" font-size="8.424">ti</text>
	<text transform="matrix(1 0 0 1 64.4956 59.2246)" font-family="'TimesNewRomanPSMT'" font-size="8.424">o</text>
	<text transform="matrix(1 0 0 1 68.7241 59.2246)" font-family="'TimesNewRomanPSMT'" font-size="8.424">n</text>
</g>
<linearGradient id="SVGID_14_" gradientUnits="userSpaceOnUse" x1="156.8687" y1="-181.668" x2="156.8687" y2="-220.4043" gradientTransform="matrix(1 0 0 -1 -104.4497 -121.7832)">
	<stop  offset="0" style="stop-color:#FFD479"/>
	<stop  offset="0.25" style="stop-color:#FFD78E"/>
	<stop  offset="0.5" style="stop-color:#FFDD9C"/>
	<stop  offset="0.75" style="stop-color:#FFD78E"/>
	<stop  offset="1" style="stop-color:#FFD479"/>
</linearGradient>
<rect x="13.467" y="79.253" fill="url(#SVGID_14_)" width="77.904" height="19.368"/>
<rect x="13.467" y="79.253" fill="none" stroke="#FFC000" stroke-width="1.56" stroke-miterlimit="10" width="77.904" height="19.368"/>
<g>
	<text transform="matrix(1 0 0 1 21.2856 91.9668)" font-family="'TimesNewRomanPSMT'" font-size="8.424">mRNA</text>
	<text transform="matrix(1 0 0 1 45.4893 91.9668)" font-family="'TimesNewRomanPSMT'" font-size="8.424"> </text>
</g>
<g>
	<text transform="matrix(1 0 0 1 47.9165 91.9668)" font-family="'TimesNewRomanPSMT'" font-size="8.424">e</text>
	<text transform="matrix(1 0 0 1 51.6563 91.9668)" font-family="'TimesNewRomanPSMT'" font-size="8.424">x</text>
	<text transform="matrix(1 0 0 1 55.8921 91.9668)" font-family="'TimesNewRomanPSMT'" font-size="8.424">p</text>
	<text transform="matrix(1 0 0 1 60.1216 91.9668)" font-family="'TimesNewRomanPSMT'" font-size="8.424">re</text>
	<text transform="matrix(1 0 0 1 66.6655 91.9668)" font-family="'TimesNewRomanPSMT'" font-size="8.424">s</text>
	<text transform="matrix(1 0 0 1 69.9692 91.9668)" font-family="'TimesNewRomanPSMT'" font-size="8.424">s</text>
	<text transform="matrix(1 0 0 1 73.2642 91.9668)" font-family="'TimesNewRomanPSMT'" font-size="8.424">i</text>
	<text transform="matrix(1 0 0 1 75.6309 91.9668)" font-family="'TimesNewRomanPSMT'" font-size="8.424">o</text>
	<text transform="matrix(1 0 0 1 79.8599 91.9668)" font-family="'TimesNewRomanPSMT'" font-size="8.424">n</text>
</g>
<linearGradient id="SVGID_15_" gradientUnits="userSpaceOnUse" x1="156.8687" y1="-222.7793" x2="156.8687" y2="-261.5176" gradientTransform="matrix(1 0 0 -1 -104.4497 -121.7832)">
	<stop  offset="0" style="stop-color:#FFD479"/>
	<stop  offset="0.25" style="stop-color:#FFD78E"/>
	<stop  offset="0.5" style="stop-color:#FFDD9C"/>
	<stop  offset="0.75" style="stop-color:#FFD78E"/>
	<stop  offset="1" style="stop-color:#FFD479"/>
</linearGradient>
<rect x="13.467" y="120.365" fill="url(#SVGID_15_)" width="77.904" height="19.369"/>
<rect x="13.467" y="120.365" fill="none" stroke="#FFC000" stroke-width="1.56" stroke-miterlimit="10" width="77.904" height="19.369"/>
<g>
	<text transform="matrix(1 0 0 1 10.5811 133.2813)" font-family="'TimesNewRomanPSMT'" font-size="8.424">    </text>
	<text transform="matrix(1 0 0 1 19.0054 133.2813)" font-family="'TimesNewRomanPSMT'" font-size="8.424">P</text>
	<text transform="matrix(1 0 0 1 23.6646 133.2813)" font-family="'TimesNewRomanPSMT'" font-size="8.424">r</text>
	<text transform="matrix(1 0 0 1 26.4033 133.2813)" font-family="'TimesNewRomanPSMT'" font-size="8.424">o</text>
	<text transform="matrix(1 0 0 1 30.6318 133.2813)" font-family="'TimesNewRomanPSMT'" font-size="8.424">t</text>
	<text transform="matrix(1 0 0 1 32.9468 133.2813)" font-family="'TimesNewRomanPSMT'" font-size="8.424">e</text>
	<text transform="matrix(1 0 0 1 36.686 133.2813)" font-family="'TimesNewRomanPSMT'" font-size="8.424">i</text>
	<text transform="matrix(1 0 0 1 39.002 133.2813)" font-family="'TimesNewRomanPSMT'" font-size="8.424">n</text>
	<text transform="matrix(1 0 0 1 47.9165 136.4092)" font-family="'TimesNewRomanPSMT'" font-size="8.424"> </text>
</g>
<g>
	<text transform="matrix(1 0 0 1 46.3169 134.2334)" font-family="'TimesNewRomanPSMT'" font-size="8.424">e</text>
	<text transform="matrix(1 0 0 1 50.0562 134.2334)" font-family="'TimesNewRomanPSMT'" font-size="8.424">x</text>
	<text transform="matrix(1 0 0 1 54.292 134.2334)" font-family="'TimesNewRomanPSMT'" font-size="8.424">p</text>
	<text transform="matrix(1 0 0 1 58.522 134.2334)" font-family="'TimesNewRomanPSMT'" font-size="8.424">re</text>
	<text transform="matrix(1 0 0 1 65.0654 134.2334)" font-family="'TimesNewRomanPSMT'" font-size="8.424">s</text>
	<text transform="matrix(1 0 0 1 68.3691 134.2334)" font-family="'TimesNewRomanPSMT'" font-size="8.424">s</text>
	<text transform="matrix(1 0 0 1 71.6646 134.2334)" font-family="'TimesNewRomanPSMT'" font-size="8.424">i</text>
	<text transform="matrix(1 0 0 1 74.0308 134.2334)" font-family="'TimesNewRomanPSMT'" font-size="8.424">o</text>
	<text transform="matrix(1 0 0 1 78.2598 134.2334)" font-family="'TimesNewRomanPSMT'" font-size="8.424">n</text>
</g>
<line fill="none" stroke="#5B9BD5" stroke-width="1.56" stroke-miterlimit="10" x1="91.371" y1="20.468" x2="102.389" y2="20.468"/>
<line fill="none" stroke="#5B9BD5" stroke-width="1.56" stroke-miterlimit="10" x1="91.371" y1="54.596" x2="102.389" y2="54.596"/>
<line fill="none" stroke="#5B9BD5" stroke-width="1.56" stroke-miterlimit="10" x1="91.371" y1="87.788" x2="102.389" y2="87.788"/>
<line fill="none" stroke="#5B9BD5" stroke-width="1.56" stroke-miterlimit="10" x1="91.371" y1="129.043" x2="102.389" y2="129.043"/>
<line fill="none" stroke="#5B9BD5" stroke-width="1.56" stroke-miterlimit="10" x1="102.389" y1="129.049" x2="102.389" y2="20.396"/>
<line fill="none" stroke="#5B9BD5" stroke-width="1.56" stroke-miterlimit="10" x1="102.389" y1="73.459" x2="113.403" y2="73.459"/>
<line fill="none" stroke="#5B9BD5" stroke-width="1.56" stroke-miterlimit="10" x1="113.332" y1="179.152" x2="113.332" y2="72.668"/>
<line fill="none" stroke="#5B9BD5" stroke-width="1.56" stroke-miterlimit="10" x1="113.332" y1="179.152" x2="230.131" y2="178.938"/>
<polygon fill="none" stroke="#5B9BD5" stroke-width="1.56" stroke-miterlimit="10" points="176.473,197.158 174.673,200.758 
	172.873,197.158 "/>
<polyline fill="none" stroke="#5B9BD5" stroke-width="1.56" stroke-miterlimit="10" points="175.141,179.796 175.141,197.758 
	174.206,197.758 174.206,179.796 "/>
<linearGradient id="SVGID_16_" gradientUnits="userSpaceOnUse" x1="179.2495" y1="-336.418" x2="338.3394" y2="-336.418" gradientTransform="matrix(1 0 0 -1 -104.4497 -121.7832)">
	<stop  offset="0" style="stop-color:#FF94F9"/>
	<stop  offset="0.25" style="stop-color:#F5C8FF"/>
	<stop  offset="0.5" style="stop-color:#FFFFFF"/>
	<stop  offset="0.75" style="stop-color:#FFC7F7"/>
	<stop  offset="1" style="stop-color:#FF94F1"/>
</linearGradient>
<rect x="74.8" y="204.516" fill="url(#SVGID_16_)" width="159.09" height="20.238"/>
<rect x="74.8" y="204.1" fill="none" stroke="#FF32E0" stroke-width="1.56" stroke-miterlimit="10" width="159.09" height="20.238"/>
<g>
	<text transform="matrix(1 0 0 1 81.8599 218.3994)" font-family="'TimesNewRomanPSMT'" font-size="10">G</text>
	<text transform="matrix(1 0 0 1 89.042 218.3994)" font-family="'TimesNewRomanPSMT'" font-size="10">e</text>
	<text transform="matrix(1 0 0 1 93.48 218.3994)" font-family="'TimesNewRomanPSMT'" font-size="10">n</text>
	<text transform="matrix(1 0 0 1 98.5098 218.3994)" font-family="'TimesNewRomanPSMT'" font-size="10">o</text>
	<text transform="matrix(1 0 0 1 103.5298 218.3994)" font-family="'TimesNewRomanPSMT'" font-size="10">m</text>
	<text transform="matrix(1 0 0 1 111.1489 218.3994)" font-family="'TimesNewRomanPSMT'" font-size="10">i</text>
	<text transform="matrix(1 0 0 1 113.957 218.3994)" font-family="'TimesNewRomanPSMT'" font-size="10">c</text>
	<text transform="matrix(1 0 0 1 118.395 218.3994)" font-family="'TimesNewRomanPSMT'" font-size="10">/</text>
	<text transform="matrix(1 0 0 1 121.2041 218.3994)" font-family="'TimesNewRomanPSMT'" font-size="10">Pr</text>
	<text transform="matrix(1 0 0 1 130.0947 218.3994)" font-family="'TimesNewRomanPSMT'" font-size="10">o</text>
	<text transform="matrix(1 0 0 1 135.1147 218.3994)" font-family="'TimesNewRomanPSMT'" font-size="10">t</text>
	<text transform="matrix(1 0 0 1 137.9229 218.3994)" font-family="'TimesNewRomanPSMT'" font-size="10">e</text>
	<text transform="matrix(1 0 0 1 142.3618 218.3994)" font-family="'TimesNewRomanPSMT'" font-size="10">o</text>
	<text transform="matrix(1 0 0 1 147.4019 218.3994)" font-family="'TimesNewRomanPSMT'" font-size="10">m</text>
	<text transform="matrix(1 0 0 1 155.02 218.3994)" font-family="'TimesNewRomanPSMT'" font-size="10">i</text>
	<text transform="matrix(1 0 0 1 157.8291 218.3994)" font-family="'TimesNewRomanPSMT'" font-size="10">c</text>
	<text transform="matrix(1 0 0 1 162.2671 218.3994)" font-family="'TimesNewRomanPSMT'" font-size="10"> </text>
	<text transform="matrix(1 0 0 1 164.5771 218.3994)" font-family="'TimesNewRomanPSMT'" font-size="10">d</text>
	<text transform="matrix(1 0 0 1 169.5967 218.3994)" font-family="'TimesNewRomanPSMT'" font-size="10">a</text>
	<text transform="matrix(1 0 0 1 174.0361 218.3994)" font-family="'TimesNewRomanPSMT'" font-size="10">t</text>
	<text transform="matrix(1 0 0 1 176.8438 218.3994)" font-family="'TimesNewRomanPSMT'" font-size="10">a</text>
	<text transform="matrix(1 0 0 1 181.2817 218.3994)" font-family="'TimesNewRomanPSMT'" font-size="10"> </text>
	<text transform="matrix(1 0 0 1 183.6929 218.3994)" font-family="'TimesNewRomanPSMT'" font-size="10">a</text>
	<text transform="matrix(1 0 0 1 188.1309 218.3994)" font-family="'TimesNewRomanPSMT'" font-size="10">n</text>
	<text transform="matrix(1 0 0 1 193.1611 218.3994)" font-family="'TimesNewRomanPSMT'" font-size="10">a</text>
	<text transform="matrix(1 0 0 1 197.5991 218.3994)" font-family="'TimesNewRomanPSMT'" font-size="10">l</text>
	<text transform="matrix(1 0 0 1 200.4077 218.3994)" font-family="'TimesNewRomanPSMT'" font-size="10">y</text>
	<text transform="matrix(1 0 0 1 205.2881 218.3994)" font-family="'TimesNewRomanPSMT'" font-size="10">s</text>
	<text transform="matrix(1 0 0 1 209.1987 218.3994)" font-family="'TimesNewRomanPSMT'" font-size="10">i</text>
	<text transform="matrix(1 0 0 1 212.0068 218.3994)" font-family="'TimesNewRomanPSMT'" font-size="10">s</text>
</g>
<g>
	<text transform="matrix(1 0 0 1 407.2358 214.6348)" font-family="'TimesNewRomanPSMT'" font-size="10">C</text>
	<text transform="matrix(1 0 0 1 413.9058 214.6348)" font-family="'TimesNewRomanPSMT'" font-size="10">li</text>
	<text transform="matrix(1 0 0 1 419.5229 214.6348)" font-family="'TimesNewRomanPSMT'" font-size="10">n</text>
	<text transform="matrix(1 0 0 1 424.5435 214.6348)" font-family="'TimesNewRomanPSMT'" font-size="10">i</text>
	<text transform="matrix(1 0 0 1 427.3501 214.6348)" font-family="'TimesNewRomanPSMT'" font-size="10">ca</text>
	<text transform="matrix(1 0 0 1 436.228 214.6348)" font-family="'TimesNewRomanPSMT'" font-size="10">l</text>
	<text transform="matrix(1 0 0 1 439.0464 214.6348)" font-family="'TimesNewRomanPSMT'" font-size="10"> </text>
	<text transform="matrix(1 0 0 1 441.2651 214.6348)" font-family="'TimesNewRomanPSMT'" font-size="10">a</text>
	<text transform="matrix(1 0 0 1 445.7046 214.6348)" font-family="'TimesNewRomanPSMT'" font-size="10">n</text>
	<text transform="matrix(1 0 0 1 450.7437 214.6348)" font-family="'TimesNewRomanPSMT'" font-size="10">a</text>
	<text transform="matrix(1 0 0 1 455.1831 214.6348)" font-family="'TimesNewRomanPSMT'" font-size="10">l</text>
	<text transform="matrix(1 0 0 1 457.9917 214.6348)" font-family="'TimesNewRomanPSMT'" font-size="10">y</text>
	<text transform="matrix(1 0 0 1 462.8608 214.6348)" font-family="'TimesNewRomanPSMT'" font-size="10">s</text>
	<text transform="matrix(1 0 0 1 466.7729 214.6348)" font-family="'TimesNewRomanPSMT'" font-size="10">i</text>
	<text transform="matrix(1 0 0 1 469.5815 214.6348)" font-family="'TimesNewRomanPSMT'" font-size="10">s</text>
</g>
<g>
	<text transform="matrix(1 0 0 1 237.2695 180.7959)" font-family="'TimesNewRomanPSMT'" font-size="10">snoRNA e</text>
	<text transform="matrix(1 0 0 1 279.2124 180.7959)" font-family="'TimesNewRomanPSMT'" font-size="10">x</text>
	<text transform="matrix(1 0 0 1 284.2524 180.7959)" font-family="'TimesNewRomanPSMT'" font-size="10">p</text>
	<text transform="matrix(1 0 0 1 289.2725 180.7959)" font-family="'TimesNewRomanPSMT'" font-size="10">re</text>
	<text transform="matrix(1 0 0 1 297.0415 180.7959)" font-family="'TimesNewRomanPSMT'" font-size="10">s</text>
	<text transform="matrix(1 0 0 1 300.9624 180.7959)" font-family="'TimesNewRomanPSMT'" font-size="10">s</text>
	<text transform="matrix(1 0 0 1 304.8745 180.7959)" font-family="'TimesNewRomanPSMT'" font-size="10">io</text>
	<text transform="matrix(1 0 0 1 312.7124 180.7959)" font-family="'TimesNewRomanPSMT'" font-size="10">n</text>
	<text transform="matrix(1 0 0 1 317.6724 180.7959)" font-family="'TimesNewRomanPSMT'" font-size="10"> </text>
	<text transform="matrix(1 0 0 1 319.894 180.7959)" font-family="'TimesNewRomanPSMT'" font-size="10">p</text>
	<text transform="matrix(1 0 0 1 324.9224 180.7959)" font-family="'TimesNewRomanPSMT'" font-size="10">a</text>
	<text transform="matrix(1 0 0 1 329.3608 180.7959)" font-family="'TimesNewRomanPSMT'" font-size="10">tt</text>
	<text transform="matrix(1 0 0 1 334.978 180.7959)" font-family="'TimesNewRomanPSMT'" font-size="10">ern</text>
</g>
</svg>
