<?xml version="1.0" encoding="utf-8"?>
<!-- Generator: Adobe Illustrator 16.0.0, SVG Export Plug-In . SVG Version: 6.00 Build 0)  -->
<!DOCTYPE svg PUBLIC "-//W3C//DTD SVG 1.1//EN" "http://www.w3.org/Graphics/SVG/1.1/DTD/svg11.dtd">
<svg version="1.1" id="图层_1" xmlns="http://www.w3.org/2000/svg" xmlns:xlink="http://www.w3.org/1999/xlink" x="0px" y="0px"
	 width="632.343px" height="242.664px" viewBox="0 0 632.343 242.664" enable-background="new 0 0 632.343 242.664"
	 xml:space="preserve">
<linearGradient id="SVGID_1_" gradientUnits="userSpaceOnUse" x1="384.3506" y1="214.3662" x2="500.6963" y2="214.3662" gradientTransform="matrix(1 0 0 -1 -8.3599 427.0527)">
	<stop  offset="0" style="stop-color:#FF94F9"/>
	<stop  offset="0.25" style="stop-color:#F5C8FF"/>
	<stop  offset="0.5" style="stop-color:#FFFFFF"/>
	<stop  offset="0.75" style="stop-color:#FFC7F7"/>
	<stop  offset="1" style="stop-color:#FF94F1"/>
</linearGradient>
<rect x="375.99" y="202.567" fill="url(#SVGID_1_)" width="116.346" height="20.238"/>
<linearGradient id="SVGID_2_" gradientUnits="userSpaceOnUse" x1="382.9063" y1="433.8027" x2="382.9063" y2="374.9082" gradientTransform="matrix(1 0 0 -1 -8.3599 427.0527)">
	<stop  offset="0" style="stop-color:#F8A581"/>
	<stop  offset="0.25" style="stop-color:#F5B195"/>
	<stop  offset="0.5" style="stop-color:#F7BDA4"/>
	<stop  offset="0.75" style="stop-color:#F5B195"/>
	<stop  offset="1" style="stop-color:#F8A581"/>
</linearGradient>
<path fill="url(#SVGID_2_)" d="M339.375,37.42c0-8.129,15.75-14.723,35.173-14.723c19.422,0,35.172,6.594,35.172,14.723
	c0,8.131-15.75,14.725-35.172,14.725C355.125,52.145,339.375,45.551,339.375,37.42z"/>
<path fill="none" stroke="#ED7D31" stroke-width="1.56" stroke-miterlimit="10" d="M339.375,37.42
	c0-8.129,15.75-14.723,35.173-14.723c19.422,0,35.172,6.594,35.172,14.723c0,8.131-15.75,14.725-35.172,14.725
	C355.125,52.145,339.375,45.551,339.375,37.42z"/>
<g>
	<text transform="matrix(1 0 0 1 354.4893 35.4893)" font-family="'TimesNewRomanPSMT'" font-size="8.424">G</text>
	<text transform="matrix(1 0 0 1 360.5396 35.4893)" font-family="'TimesNewRomanPSMT'" font-size="8.424">E</text>
	<text transform="matrix(1 0 0 1 365.6602 35.4893)" font-family="'TimesNewRomanPSMT'" font-size="8.424">N</text>
	<text transform="matrix(1 0 0 1 371.7095 35.4893)" font-family="'TimesNewRomanPSMT'" font-size="8.424">C</text>
	<text transform="matrix(1 0 0 1 377.3281 35.4893)" font-family="'TimesNewRomanPSMT'" font-size="8.424">OD</text>
	<text transform="matrix(1 0 0 1 389.4277 35.4893)" font-family="'TimesNewRomanPSMT'" font-size="8.424">E</text>
	<text transform="matrix(1 0 0 1 394.5469 35.4893)" font-family="'TimesNewRomanPSMT'" font-size="8.424"> </text>
</g>
<g>
	<text transform="matrix(1 0 0 1 358.0894 45.5684)" font-family="'TimesNewRomanPSMT'" font-size="8.424">sno</text>
	<text transform="matrix(1 0 0 1 369.8423 45.5684)" font-family="'TimesNewRomanPSMT'" font-size="8.424">R</text>
	<text transform="matrix(1 0 0 1 375.4609 45.5684)" font-family="'TimesNewRomanPSMT'" font-size="8.424">NA</text>
	<text transform="matrix(1 0 0 1 387.5615 45.5684)" font-family="'TimesNewRomanPSMT'" font-size="8.424">s</text>
</g>
<linearGradient id="SVGID_3_" gradientUnits="userSpaceOnUse" x1="486.3711" y1="434.5967" x2="486.3711" y2="375.7002" gradientTransform="matrix(1 0 0 -1 -8.3599 427.0527)">
	<stop  offset="0" style="stop-color:#F8A581"/>
	<stop  offset="0.25" style="stop-color:#F5B195"/>
	<stop  offset="0.5" style="stop-color:#F7BDA4"/>
	<stop  offset="0.75" style="stop-color:#F5B195"/>
	<stop  offset="1" style="stop-color:#F8A581"/>
</linearGradient>
<ellipse fill="url(#SVGID_3_)" cx="478.012" cy="36.629" rx="34.812" ry="14.724"/>
<ellipse fill="none" stroke="#ED7D31" stroke-width="1.56" stroke-miterlimit="10" cx="478.012" cy="36.629" rx="34.812" ry="14.724"/>
<g>
	<text transform="matrix(1 0 0 1 467.0547 34.6846)" font-family="'TimesNewRomanPSMT'" font-size="8.424">U</text>
	<text transform="matrix(1 0 0 1 473.1055 34.6846)" font-family="'TimesNewRomanPSMT'" font-size="8.424">CSC </text>
</g>
<g>
	<text transform="matrix(1 0 0 1 461.584 44.7646)" font-family="'TimesNewRomanPSMT'" font-size="8.424">sn</text>
	<text transform="matrix(1 0 0 1 469.1074 44.7646)" font-family="'TimesNewRomanPSMT'" font-size="8.424">o</text>
	<text transform="matrix(1 0 0 1 473.3438 44.7646)" font-family="'TimesNewRomanPSMT'" font-size="8.424">R</text>
	<text transform="matrix(1 0 0 1 478.9629 44.7646)" font-family="'TimesNewRomanPSMT'" font-size="8.424">NA</text>
	<text transform="matrix(1 0 0 1 491.0625 44.7646)" font-family="'TimesNewRomanPSMT'" font-size="8.424">s</text>
</g>
<line fill="none" stroke="#5B9BD5" stroke-width="1.56" stroke-miterlimit="10" x1="373.504" y1="52.578" x2="373.504" y2="68.819"/>
<line fill="none" stroke="#5B9BD5" stroke-width="1.56" stroke-miterlimit="10" x1="480.496" y1="51.786" x2="480.496" y2="69.228"/>
<line fill="none" stroke="#5B9BD5" stroke-width="1.56" stroke-miterlimit="10" x1="373.144" y1="68.849" x2="481.156" y2="69.684"/>
<path fill="#5B9BD5" d="M434.344,102.395l-1.8,3.6l-1.8-3.6H434.344z M433.012,69.713v33.282h-0.937V69.713H433.012z"/>
<linearGradient id="SVGID_4_" gradientUnits="userSpaceOnUse" x1="431.8242" y1="339.9883" x2="431.8242" y2="301.252" gradientTransform="matrix(1 0 0 -1 -8.3599 427.0527)">
	<stop  offset="0" style="stop-color:#F8A581"/>
	<stop  offset="0.25" style="stop-color:#F5B195"/>
	<stop  offset="0.5" style="stop-color:#F7BDA4"/>
	<stop  offset="0.75" style="stop-color:#F5B195"/>
	<stop  offset="1" style="stop-color:#F8A581"/>
</linearGradient>
<rect x="362.936" y="106.433" fill="url(#SVGID_4_)" width="121.058" height="19.368"/>
<rect x="364.479" y="106.434" fill="none" stroke="#ED7D31" stroke-width="1.56" stroke-miterlimit="10" width="119.856" height="19.368"/>
<g>
	<text transform="matrix(1 0 0 1 387.5615 119.2129)" font-family="'TimesNewRomanPSMT'" font-size="8.424">1524</text>
	<text transform="matrix(1 0 0 1 398.1533 119.2129)" font-family="'TimesNewRomanPSMT'" font-size="8.424"> </text>
</g>
<g>
	<text transform="matrix(1 0 0 1 407.2363 119.2129)" font-family="'TimesNewRomanPSMT'" font-size="8.424">sn</text>
	<text transform="matrix(1 0 0 1 414.7598 119.2129)" font-family="'TimesNewRomanPSMT'" font-size="8.424">o</text>
	<text transform="matrix(1 0 0 1 418.9961 119.2129)" font-family="'TimesNewRomanPSMT'" font-size="8.424">R</text>
	<text transform="matrix(1 0 0 1 424.6152 119.2129)" font-family="'TimesNewRomanPSMT'" font-size="8.424">NA genes</text>
</g>
<g>
</g>
<linearGradient id="SVGID_5_" gradientUnits="userSpaceOnUse" x1="212.5552" y1="442.2295" x2="212.5552" y2="392.5479" gradientTransform="matrix(1 0 0 -1 -8.3599 427.0527)">
	<stop  offset="0" style="stop-color:#9CCA86"/>
	<stop  offset="0.25" style="stop-color:#AACE99"/>
	<stop  offset="0.5" style="stop-color:#B5D5A7"/>
	<stop  offset="0.75" style="stop-color:#AACE99"/>
	<stop  offset="1" style="stop-color:#9CCA86"/>
</linearGradient>
<rect x="160.744" y="9.665" fill="url(#SVGID_5_)" width="86.904" height="24.84"/>
<rect x="160.744" y="9.665" fill="none" stroke="#70AD47" stroke-width="1.56" stroke-miterlimit="10" width="86.904" height="24.84"/>
<g>
	<text transform="matrix(1 0 0 1 170.0376 20.1299)" font-family="'TimesNewRomanPSMT'" font-size="8.424">s</text>
	<text transform="matrix(1 0 0 1 173.3325 20.1299)" font-family="'TimesNewRomanPSMT'" font-size="8.424">m</text>
	<text transform="matrix(1 0 0 1 179.7505 20.1299)" font-family="'TimesNewRomanPSMT'" font-size="8.424">R</text>
	<text transform="matrix(1 0 0 1 185.3687 20.1299)" font-family="'TimesNewRomanPSMT'" font-size="8.424">N</text>
	<text transform="matrix(1 0 0 1 191.4189 20.1299)" font-family="'TimesNewRomanPSMT'" font-size="8.424">A</text>
</g>
<g>
	<text transform="matrix(1 0 0 1 197.4688 20.1299)" font-family="'TimesNewRomanPSMT'" font-size="8.424">-</text>
</g>
<g>
	<text transform="matrix(1 0 0 1 200.2769 20.1299)" font-family="'TimesNewRomanPSMT'" font-size="8.424">Seq</text>
</g>
<g>
	<text transform="matrix(1 0 0 1 215.1089 20.1299)" font-family="'TimesNewRomanPSMT'" font-size="8.424">d</text>
	<text transform="matrix(1 0 0 1 219.3462 20.1299)" font-family="'TimesNewRomanPSMT'" font-size="8.424">a</text>
	<text transform="matrix(1 0 0 1 223.0854 20.1299)" font-family="'TimesNewRomanPSMT'" font-size="8.424">t</text>
	<text transform="matrix(1 0 0 1 225.4507 20.1299)" font-family="'TimesNewRomanPSMT'" font-size="8.424">a</text>
	<text transform="matrix(1 0 0 1 229.1895 20.1299)" font-family="'TimesNewRomanPSMT'" font-size="8.424"> </text>
	<text transform="matrix(1 0 0 1 231.2114 20.1299)" font-family="'TimesNewRomanPSMT'" font-size="8.424">o</text>
	<text transform="matrix(1 0 0 1 235.4492 20.1299)" font-family="'TimesNewRomanPSMT'" font-size="8.424">f </text>
</g>
<g>
	<text transform="matrix(1 0 0 1 166.8687 30.209)" font-family="'TimesNewRomanPSMT'" font-size="8.424">1</text>
	<text transform="matrix(1 0 0 1 171.106 30.209)" font-family="'TimesNewRomanPSMT'" font-size="8.424">6</text>
	<text transform="matrix(1 0 0 1 175.335 30.209)" font-family="'TimesNewRomanPSMT'" font-size="8.424">5</text>
	<text transform="matrix(1 0 0 1 179.5718 30.209)" font-family="'TimesNewRomanPSMT'" font-size="8.424">91 TCGA samples</text>
	<text transform="matrix(1 0 0 1 188.0293 30.209)" font-family="'TimesNewRomanPSMT'" font-size="8.424"> </text>
</g>
<line fill="none" stroke="#5B9BD5" stroke-width="1.56" stroke-miterlimit="10" x1="432.544" y1="125.801" x2="432.544" y2="147.018"/>
<line fill="none" stroke="#5B9BD5" stroke-width="1.56" stroke-miterlimit="10" x1="206.104" y1="146.969" x2="433.432" y2="146.969"/>
<path fill="none" stroke="#5B9BD5" stroke-width="1.56" stroke-miterlimit="10" d="M292.863,164.124l-1.8,3.6l-1.8-3.6H292.863z
	 M291.531,147.761v16.963h-0.935v-16.963H291.531z"/>
<linearGradient id="SVGID_6_" gradientUnits="userSpaceOnUse" x1="212.8794" y1="397.252" x2="212.8794" y2="353.7637" gradientTransform="matrix(1 0 0 -1 -8.3599 427.0527)">
	<stop  offset="0" style="stop-color:#9CCA86"/>
	<stop  offset="0.25" style="stop-color:#AACE99"/>
	<stop  offset="0.5" style="stop-color:#B5D5A7"/>
	<stop  offset="0.75" style="stop-color:#AACE99"/>
	<stop  offset="1" style="stop-color:#9CCA86"/>
</linearGradient>
<rect x="161.104" y="51.545" fill="url(#SVGID_6_)" width="86.833" height="21.744"/>
<rect x="161.104" y="51.545" fill="none" stroke="#70AD47" stroke-width="1.56" stroke-miterlimit="10" width="86.833" height="21.744"/>
<g>
	<text transform="matrix(1 0 0 1 169.4609 65.4893)" font-family="'TimesNewRomanPSMT'" font-size="8.424">F</text>
	<text transform="matrix(1 0 0 1 174.1455 65.4893)" font-family="'TimesNewRomanPSMT'" font-size="8.424">ilt</text>
	<text transform="matrix(1 0 0 1 181.2422 65.4893)" font-family="'TimesNewRomanPSMT'" font-size="8.424">er</text>
	<text transform="matrix(1 0 0 1 187.7871 65.4893)" font-family="'TimesNewRomanPSMT'" font-size="8.424"> </text>
	<text transform="matrix(1 0 0 1 189.6733 65.4893)" font-family="'TimesNewRomanPSMT'" font-size="8.424">re</text>
	<text transform="matrix(1 0 0 1 196.2183 65.4893)" font-family="'TimesNewRomanPSMT'" font-size="8.424">p</text>
	<text transform="matrix(1 0 0 1 200.4639 65.4893)" font-family="'TimesNewRomanPSMT'" font-size="8.424">ea</text>
	<text transform="matrix(1 0 0 1 207.9424 65.4893)" font-family="'TimesNewRomanPSMT'" font-size="8.424">t</text>
	<text transform="matrix(1 0 0 1 210.3159 65.4893)" font-family="'TimesNewRomanPSMT'" font-size="8.424"> </text>
	<text transform="matrix(1 0 0 1 212.3296 65.4893)" font-family="'TimesNewRomanPSMT'" font-size="8.424">s</text>
	<text transform="matrix(1 0 0 1 215.625 65.4893)" font-family="'TimesNewRomanPSMT'" font-size="8.424">a</text>
	<text transform="matrix(1 0 0 1 219.3628 65.4893)" font-family="'TimesNewRomanPSMT'" font-size="8.424">m</text>
	<text transform="matrix(1 0 0 1 225.7817 65.4893)" font-family="'TimesNewRomanPSMT'" font-size="8.424">pl</text>
	<text transform="matrix(1 0 0 1 232.3843 65.4893)" font-family="'TimesNewRomanPSMT'" font-size="8.424">es</text>
</g>
<path fill="#5B9BD5" d="M208.479,45.371l-1.8,3.6l-1.8-3.6H208.479z M207.147,35.009v10.962h-0.936V35.009H207.147z"/>
<line fill="none" stroke="#5B9BD5" stroke-width="1.56" stroke-miterlimit="10" x1="206.679" y1="130.481" x2="206.679" y2="146.495"/>
<linearGradient id="SVGID_7_" gradientUnits="userSpaceOnUse" x1="212.5552" y1="335.1631" x2="212.5552" y2="296.5713" gradientTransform="matrix(1 0 0 -1 -8.3599 427.0527)">
	<stop  offset="0" style="stop-color:#9CCA86"/>
	<stop  offset="0.25" style="stop-color:#AACE99"/>
	<stop  offset="0.5" style="stop-color:#B5D5A7"/>
	<stop  offset="0.75" style="stop-color:#AACE99"/>
	<stop  offset="1" style="stop-color:#9CCA86"/>
</linearGradient>
<rect x="160.744" y="111.186" fill="url(#SVGID_7_)" width="86.904" height="19.296"/>
<rect x="160.744" y="111.186" fill="none" stroke="#70AD47" stroke-width="1.56" stroke-miterlimit="10" width="86.904" height="19.296"/>
<g>
	<text transform="matrix(1 0 0 1 166.8687 123.9229)" font-family="'TimesNewRomanPSMT'" font-size="8.424">1</text>
	<text transform="matrix(1 0 0 1 171.106 123.9229)" font-family="'TimesNewRomanPSMT'" font-size="8.424">0</text>
	<text transform="matrix(1 0 0 1 175.335 123.9229)" font-family="'TimesNewRomanPSMT'" font-size="8.424">5</text>
	<text transform="matrix(1 0 0 1 179.5718 123.9229)" font-family="'TimesNewRomanPSMT'" font-size="8.424">94</text>
	<text transform="matrix(1 0 0 1 188.0293 123.9229)" font-family="'TimesNewRomanPSMT'" font-size="8.424"> </text>
	<text transform="matrix(1 0 0 1 191.4189 123.9229)" font-family="'TimesNewRomanPSMT'" font-size="8.424">TCGA samples </text>
</g>
<path fill="#5B9BD5" d="M208.696,108.03l-1.8,3.6l-1.8-3.6H208.696z M207.363,73.361v35.269h-0.937V73.361H207.363z"/>
<g>
	<text transform="matrix(1 0 0 1 208.125 85.9668)" font-family="'TimesNewRomanPSMT'" font-size="8.424">Q</text>
	<text transform="matrix(1 0 0 1 214.1753 85.9668)" font-family="'TimesNewRomanPSMT'" font-size="8.424">u</text>
	<text transform="matrix(1 0 0 1 218.4126 85.9668)" font-family="'TimesNewRomanPSMT'" font-size="8.424">a</text>
	<text transform="matrix(1 0 0 1 222.1509 85.9668)" font-family="'TimesNewRomanPSMT'" font-size="8.424">lit</text>
	<text transform="matrix(1 0 0 1 229.2485 85.9668)" font-family="'TimesNewRomanPSMT'" font-size="8.424">y</text>
	<text transform="matrix(1 0 0 1 233.3501 85.9668)" font-family="'TimesNewRomanPSMT'" font-size="8.424"> </text>
	<text transform="matrix(1 0 0 1 235.3726 85.9668)" font-family="'TimesNewRomanPSMT'" font-size="8.424">c</text>
	<text transform="matrix(1 0 0 1 239.1113 85.9668)" font-family="'TimesNewRomanPSMT'" font-size="8.424">o</text>
	<text transform="matrix(1 0 0 1 243.3569 85.9668)" font-family="'TimesNewRomanPSMT'" font-size="8.424">n</text>
	<text transform="matrix(1 0 0 1 247.5854 85.9668)" font-family="'TimesNewRomanPSMT'" font-size="8.424">t</text>
	<text transform="matrix(1 0 0 1 249.9512 85.9668)" font-family="'TimesNewRomanPSMT'" font-size="8.424">r</text>
	<text transform="matrix(1 0 0 1 252.7563 85.9668)" font-family="'TimesNewRomanPSMT'" font-size="8.424">o</text>
	<text transform="matrix(1 0 0 1 256.9941 85.9668)" font-family="'TimesNewRomanPSMT'" font-size="8.424">l</text>
	<text transform="matrix(1 0 0 1 259.3096 85.9668)" font-family="'TimesNewRomanPSMT'" font-size="8.424">:</text>
	<text transform="matrix(1 0 0 1 261.6753 85.9668)" font-family="'TimesNewRomanPSMT'" font-size="8.424"> </text>
</g>
<g>
	<text transform="matrix(1 0 0 1 208.125 96.0469)" font-family="'TimesNewRomanPSMT'" font-size="8.424">Q</text>
	<text transform="matrix(1 0 0 1 214.1753 96.0469)" font-family="'TimesNewRomanPSMT'" font-size="8.424">C</text>
</g>
<g>
	<text transform="matrix(1 0 0 1 219.3462 96.0469)" enable-background="new    "><tspan x="0" y="0" font-family="'TimesNewRomanPSMT'" font-size="8.424">-passed reads </tspan><tspan x="47.249" y="0" font-family="'ArialMT'" font-size="8.424">≥ 50%;</tspan><tspan x="73.414" y="0" font-family="'TimesNewRomanPSMT'" font-size="8.424"> </tspan></text>
</g>
<g>
	<text transform="matrix(1 0 0 1 275.4517 96.6953)" font-family="'ArialMT'" font-size="8.424"> </text>
	<text transform="matrix(1 0 0 1 292.207 96.6953)" font-family="'ArialMT'" font-size="8.424"> </text>
</g>
<g>
	<text transform="matrix(1 0 0 1 208.125 106.1265)" font-family="'TimesNewRomanPSMT'" font-size="8.424">Rea</text>
	<text transform="matrix(1 0 0 1 221.2222 106.1265)" font-family="'TimesNewRomanPSMT'" font-size="8.424">d</text>
	<text transform="matrix(1 0 0 1 225.4678 106.1265)" font-family="'TimesNewRomanPSMT'" font-size="8.424">s</text>
	<text transform="matrix(1 0 0 1 228.7622 106.1265)" font-family="'TimesNewRomanPSMT'" font-size="8.424"> </text>
	<text transform="matrix(1 0 0 1 230.8687 106.1265)" font-family="'TimesNewRomanPSMT'" font-size="8.424">m</text>
	<text transform="matrix(1 0 0 1 237.2695 106.1265)" font-family="'TimesNewRomanPSMT'" font-size="8.424">a</text>
	<text transform="matrix(1 0 0 1 241.0083 106.1265)" font-family="'TimesNewRomanPSMT'" font-size="8.424">p</text>
	<text transform="matrix(1 0 0 1 245.2461 106.1265)" font-family="'TimesNewRomanPSMT'" font-size="8.424">p</text>
	<text transform="matrix(1 0 0 1 249.4746 106.1265)" font-family="'TimesNewRomanPSMT'" font-size="8.424">e</text>
	<text transform="matrix(1 0 0 1 253.2134 106.1265)" font-family="'TimesNewRomanPSMT'" font-size="8.424">d</text>
	<text transform="matrix(1 0 0 1 257.4595 106.1265)" font-family="'TimesNewRomanPSMT'" font-size="8.424"> </text>
</g>
<g>
	<text transform="matrix(1 0 0 1 259.605 106.1265)" font-family="'TimesNewRomanPSMT'" font-size="8.424">t</text>
	<text transform="matrix(1 0 0 1 262.6753 105.7412)" enable-background="new    "><tspan x="0" y="0" font-family="'TimesNewRomanPSMT'" font-size="8.424">o human genome </tspan><tspan x="60.124" y="0" font-family="'ArialMT'" font-size="8.424">≥ 80%</tspan><tspan x="83.948" y="0" font-family="'TimesNewRomanPSMT'" font-size="8.424">    </tspan></text>
</g>
<g>
	<text transform="matrix(1 0 0 1 434.5645 93.209)" font-family="'TimesNewRomanPSMT'" font-size="8.424">Me</text>
	<text transform="matrix(1 0 0 1 445.7949 93.209)" font-family="'TimesNewRomanPSMT'" font-size="8.424">r</text>
	<text transform="matrix(1 0 0 1 448.4648 93.209)" font-family="'TimesNewRomanPSMT'" font-size="8.424">g</text>
	<text transform="matrix(1 0 0 1 452.6934 93.209)" font-family="'TimesNewRomanPSMT'" font-size="8.424">e</text>
	<text transform="matrix(1 0 0 1 456.4336 93.209)" font-family="'TimesNewRomanPSMT'" font-size="8.424"> </text>
	<text transform="matrix(1 0 0 1 458.4551 93.209)" font-family="'TimesNewRomanPSMT'" font-size="8.424">ov</text>
	<text transform="matrix(1 0 0 1 466.9121 93.209)" font-family="'TimesNewRomanPSMT'" font-size="8.424">er</text>
	<text transform="matrix(1 0 0 1 473.4551 93.209)" font-family="'TimesNewRomanPSMT'" font-size="8.424">l</text>
	<text transform="matrix(1 0 0 1 475.8301 93.209)" font-family="'TimesNewRomanPSMT'" font-size="8.424">a</text>
	<text transform="matrix(1 0 0 1 479.5684 93.209)" font-family="'TimesNewRomanPSMT'" font-size="8.424">p</text>
	<text transform="matrix(1 0 0 1 483.8145 93.209)" font-family="'TimesNewRomanPSMT'" font-size="8.424">p</text>
	<text transform="matrix(1 0 0 1 488.043 93.209)" font-family="'TimesNewRomanPSMT'" font-size="8.424">e</text>
	<text transform="matrix(1 0 0 1 491.7832 93.209)" font-family="'TimesNewRomanPSMT'" font-size="8.424">d</text>
	<text transform="matrix(1 0 0 1 495.9609 93.209)" font-family="'TimesNewRomanPSMT'" font-size="8.424"> </text>
	<text transform="matrix(1 0 0 1 497.8398 93.209)" font-family="'TimesNewRomanPSMT'" font-size="8.424">g</text>
	<text transform="matrix(1 0 0 1 502.0684 93.209)" font-family="'TimesNewRomanPSMT'" font-size="8.424">e</text>
	<text transform="matrix(1 0 0 1 505.8086 93.209)" font-family="'TimesNewRomanPSMT'" font-size="8.424">n</text>
	<text transform="matrix(1 0 0 1 510.0449 93.209)" font-family="'TimesNewRomanPSMT'" font-size="8.424">es</text>
</g>
<linearGradient id="SVGID_8_" gradientUnits="userSpaceOnUse" x1="599.1934" y1="421.8867" x2="599.1934" y2="383.1523" gradientTransform="matrix(1 0 0 -1 -8.3599 427.0527)">
	<stop  offset="0" style="stop-color:#92B9E4"/>
	<stop  offset="0.25" style="stop-color:#A3C1E5"/>
	<stop  offset="0.5" style="stop-color:#B1CBE9"/>
	<stop  offset="0.75" style="stop-color:#A3C1E5"/>
	<stop  offset="1" style="stop-color:#92B9E4"/>
</linearGradient>
<rect x="558.482" y="24.534" fill="url(#SVGID_8_)" width="64.703" height="19.367"/>
<rect x="558.482" y="24.534" fill="none" stroke="#5B9BD5" stroke-width="1.56" stroke-miterlimit="10" width="64.703" height="19.367"/>
<g>
	<text transform="matrix(1 0 0 1 577.582 37.3608)" font-family="'TimesNewRomanPSMT'" font-size="8.424">S</text>
	<text transform="matrix(1 0 0 1 582.2656 37.3608)" font-family="'TimesNewRomanPSMT'" font-size="8.424">ub</text>
	<text transform="matrix(1 0 0 1 590.7246 37.3608)" font-family="'TimesNewRomanPSMT'" font-size="8.424">t</text>
	<text transform="matrix(1 0 0 1 593.0898 37.3608)" font-family="'TimesNewRomanPSMT'" font-size="8.424">y</text>
	<text transform="matrix(1 0 0 1 597.2012 37.3608)" font-family="'TimesNewRomanPSMT'" font-size="8.424">p</text>
	<text transform="matrix(1 0 0 1 601.4297 37.3608)" font-family="'TimesNewRomanPSMT'" font-size="8.424">e</text>
</g>
<linearGradient id="SVGID_9_" gradientUnits="userSpaceOnUse" x1="599.1934" y1="387.1133" x2="599.1934" y2="348.375" gradientTransform="matrix(1 0 0 -1 -8.3599 427.0527)">
	<stop  offset="0" style="stop-color:#92B9E4"/>
	<stop  offset="0.25" style="stop-color:#A3C1E5"/>
	<stop  offset="0.5" style="stop-color:#B1CBE9"/>
	<stop  offset="0.75" style="stop-color:#A3C1E5"/>
	<stop  offset="1" style="stop-color:#92B9E4"/>
</linearGradient>
<rect x="558.482" y="59.309" fill="url(#SVGID_9_)" width="64.703" height="19.369"/>
<rect x="558.482" y="59.309" fill="none" stroke="#5B9BD5" stroke-width="1.56" stroke-miterlimit="10" width="64.703" height="19.369"/>
<g>
	<text transform="matrix(1 0 0 1 582.0449 72.0952)" font-family="'TimesNewRomanPSMT'" font-size="8.424">S</text>
	<text transform="matrix(1 0 0 1 586.7305 72.0952)" font-family="'TimesNewRomanPSMT'" font-size="8.424">t</text>
	<text transform="matrix(1 0 0 1 589.0957 72.0952)" font-family="'TimesNewRomanPSMT'" font-size="8.424">a</text>
	<text transform="matrix(1 0 0 1 592.834 72.0952)" font-family="'TimesNewRomanPSMT'" font-size="8.424">g</text>
	<text transform="matrix(1 0 0 1 597.0723 72.0952)" font-family="'TimesNewRomanPSMT'" font-size="8.424">e </text>
</g>
<linearGradient id="SVGID_10_" gradientUnits="userSpaceOnUse" x1="600.4199" y1="354.4941" x2="600.4199" y2="315.7598" gradientTransform="matrix(1 0 0 -1 -8.3599 427.0527)">
	<stop  offset="0" style="stop-color:#92B9E4"/>
	<stop  offset="0.25" style="stop-color:#A3C1E5"/>
	<stop  offset="0.5" style="stop-color:#B1CBE9"/>
	<stop  offset="0.75" style="stop-color:#A3C1E5"/>
	<stop  offset="1" style="stop-color:#92B9E4"/>
</linearGradient>
<rect x="559.708" y="91.926" fill="url(#SVGID_10_)" width="64.704" height="19.368"/>
<rect x="559.708" y="91.926" fill="none" stroke="#5B9BD5" stroke-width="1.56" stroke-miterlimit="10" width="64.704" height="19.368"/>
<g>
	<text transform="matrix(1 0 0 1 578.3203 104.7412)" font-family="'TimesNewRomanPSMT'" font-size="8.424">S</text>
	<text transform="matrix(1 0 0 1 583.0039 104.7412)" font-family="'TimesNewRomanPSMT'" font-size="8.424">u</text>
	<text transform="matrix(1 0 0 1 587.2344 104.7412)" font-family="'TimesNewRomanPSMT'" font-size="8.424">r</text>
	<text transform="matrix(1 0 0 1 590.0391 104.7412)" font-family="'TimesNewRomanPSMT'" font-size="8.424">vi</text>
	<text transform="matrix(1 0 0 1 596.6426 104.7412)" font-family="'TimesNewRomanPSMT'" font-size="8.424">v</text>
	<text transform="matrix(1 0 0 1 600.8301 104.7412)" font-family="'TimesNewRomanPSMT'" font-size="8.424">al</text>
</g>
<line fill="none" stroke="#5B9BD5" stroke-width="1.56" stroke-miterlimit="10" x1="547.504" y1="34.361" x2="558.521" y2="34.361"/>
<line fill="none" stroke="#5B9BD5" stroke-width="1.56" stroke-miterlimit="10" x1="547.504" y1="68.489" x2="558.521" y2="68.489"/>
<line fill="none" stroke="#5B9BD5" stroke-width="1.56" stroke-miterlimit="10" x1="547.504" y1="102.809" x2="558.521" y2="102.809"/>
<line fill="none" stroke="#5B9BD5" stroke-width="1.56" stroke-miterlimit="10" x1="547.504" y1="34.29" x2="547.504" y2="103.168"/>
<line fill="none" stroke="#5B9BD5" stroke-width="1.56" stroke-miterlimit="10" x1="536.486" y1="87.353" x2="547.504" y2="87.353"/>
<line fill="none" stroke="#5B9BD5" stroke-width="1.56" stroke-miterlimit="10" x1="536.56" y1="86.561" x2="536.56" y2="180.001"/>
<path fill="none" stroke="#5B9BD5" stroke-width="1.56" stroke-miterlimit="10" d="M435.208,195.588l-1.8,3.6l-1.801-3.6H435.208z
	 M433.875,179.227v16.962h-0.935v-16.962H433.875z"/>
<line fill="none" stroke="#5B9BD5" stroke-width="1.56" stroke-miterlimit="10" x1="338.704" y1="179.153" x2="536.481" y2="179.584"/>
<path fill="none" stroke="#5B9BD5" stroke-width="1.56" stroke-miterlimit="10" d="M632.271,87.665"/>
<path fill="none" stroke="#5B9BD5" stroke-width="1.56" stroke-miterlimit="10" d="M632.343,86.874"/>
<linearGradient id="SVGID_11_" gradientUnits="userSpaceOnUse" x1="239.8765" y1="247.8994" x2="356.2227" y2="247.8994" gradientTransform="matrix(1 0 0 -1 -8.3599 427.0527)">
	<stop  offset="0" style="stop-color:#FF94F9"/>
	<stop  offset="0.25" style="stop-color:#F5C8FF"/>
	<stop  offset="0.5" style="stop-color:#FFFFFF"/>
	<stop  offset="0.75" style="stop-color:#FFC7F7"/>
	<stop  offset="1" style="stop-color:#FF94F1"/>
</linearGradient>
<rect x="231.517" y="169.034" fill="url(#SVGID_11_)" width="116.346" height="20.238"/>
<rect x="231.517" y="169.034" fill="none" stroke="#FF32E0" stroke-width="1.56" stroke-miterlimit="10" width="116.346" height="20.238"/>
<rect x="375.99" y="202.567" fill="none" stroke="#FF32E0" stroke-width="1.56" stroke-miterlimit="10" width="116.346" height="20.238"/>
<linearGradient id="SVGID_12_" gradientUnits="userSpaceOnUse" x1="69.7788" y1="434.7041" x2="69.7788" y2="395.9678" gradientTransform="matrix(1 0 0 -1 -8.3599 427.0527)">
	<stop  offset="0" style="stop-color:#FFD479"/>
	<stop  offset="0.25" style="stop-color:#FFD78E"/>
	<stop  offset="0.5" style="stop-color:#FFDD9C"/>
	<stop  offset="0.75" style="stop-color:#FFD78E"/>
	<stop  offset="1" style="stop-color:#FFD479"/>
</linearGradient>
<rect x="22.467" y="11.717" fill="url(#SVGID_12_)" width="77.904" height="19.369"/>
<rect x="22.467" y="11.717" fill="none" stroke="#FFC000" stroke-width="1.56" stroke-miterlimit="10" width="77.904" height="19.369"/>
<g>
	<text transform="matrix(1 0 0 1 30.2856 24.4912)" font-family="'TimesNewRomanPSMT'" font-size="8.424">C</text>
	<text transform="matrix(1 0 0 1 35.9053 24.4912)" font-family="'TimesNewRomanPSMT'" font-size="8.424">o</text>
	<text transform="matrix(1 0 0 1 40.1411 24.4912)" font-family="'TimesNewRomanPSMT'" font-size="8.424">p</text>
	<text transform="matrix(1 0 0 1 44.3696 24.4912)" font-family="'TimesNewRomanPSMT'" font-size="8.424">y</text>
	<text transform="matrix(1 0 0 1 48.481 24.4912)" font-family="'TimesNewRomanPSMT'" font-size="8.424"> n</text>
	<text transform="matrix(1 0 0 1 54.7993 24.4912)" font-family="'TimesNewRomanPSMT'" font-size="8.424">u</text>
	<text transform="matrix(1 0 0 1 59.0444 24.4912)" font-family="'TimesNewRomanPSMT'" font-size="8.424">m</text>
	<text transform="matrix(1 0 0 1 65.4624 24.4912)" font-family="'TimesNewRomanPSMT'" font-size="8.424">b</text>
	<text transform="matrix(1 0 0 1 69.7007 24.4912)" font-family="'TimesNewRomanPSMT'" font-size="8.424">er </text>
</g>
<g>
	<text transform="matrix(1 0 0 1 78.3989 24.4912)" font-family="'TimesNewRomanPSMT'" font-size="8.424">d</text>
	<text transform="matrix(1 0 0 1 82.6279 24.4912)" font-family="'TimesNewRomanPSMT'" font-size="8.424">a</text>
	<text transform="matrix(1 0 0 1 86.3672 24.4912)" font-family="'TimesNewRomanPSMT'" font-size="8.424">t</text>
	<text transform="matrix(1 0 0 1 88.7319 24.4912)" font-family="'TimesNewRomanPSMT'" font-size="8.424">a</text>
</g>
<linearGradient id="SVGID_13_" gradientUnits="userSpaceOnUse" x1="69.7788" y1="400.002" x2="69.7788" y2="361.2637" gradientTransform="matrix(1 0 0 -1 -8.3599 427.0527)">
	<stop  offset="0" style="stop-color:#FFD479"/>
	<stop  offset="0.25" style="stop-color:#FFD78E"/>
	<stop  offset="0.5" style="stop-color:#FFDD9C"/>
	<stop  offset="0.75" style="stop-color:#FFD78E"/>
	<stop  offset="1" style="stop-color:#FFD479"/>
</linearGradient>
<rect x="22.467" y="46.42" fill="url(#SVGID_13_)" width="77.904" height="19.369"/>
<rect x="22.467" y="46.42" fill="none" stroke="#FFC000" stroke-width="1.56" stroke-miterlimit="10" width="77.904" height="19.369"/>
<g>
	<text transform="matrix(1 0 0 1 40.7246 59.2246)" font-family="'TimesNewRomanPSMT'" font-size="8.424">Me</text>
	<text transform="matrix(1 0 0 1 51.9526 59.2246)" font-family="'TimesNewRomanPSMT'" font-size="8.424">t</text>
	<text transform="matrix(1 0 0 1 54.3193 59.2246)" font-family="'TimesNewRomanPSMT'" font-size="8.424">h</text>
	<text transform="matrix(1 0 0 1 58.5493 59.2246)" font-family="'TimesNewRomanPSMT'" font-size="8.424">y</text>
	<text transform="matrix(1 0 0 1 62.6592 59.2246)" font-family="'TimesNewRomanPSMT'" font-size="8.424">l</text>
	<text transform="matrix(1 0 0 1 65.0244 59.2246)" font-family="'TimesNewRomanPSMT'" font-size="8.424">a</text>
	<text transform="matrix(1 0 0 1 68.7642 59.2246)" font-family="'TimesNewRomanPSMT'" font-size="8.424">ti</text>
	<text transform="matrix(1 0 0 1 73.4956 59.2246)" font-family="'TimesNewRomanPSMT'" font-size="8.424">o</text>
	<text transform="matrix(1 0 0 1 77.7241 59.2246)" font-family="'TimesNewRomanPSMT'" font-size="8.424">n</text>
</g>
<linearGradient id="SVGID_14_" gradientUnits="userSpaceOnUse" x1="69.7788" y1="367.167" x2="69.7788" y2="328.4326" gradientTransform="matrix(1 0 0 -1 -8.3599 427.0527)">
	<stop  offset="0" style="stop-color:#FFD479"/>
	<stop  offset="0.25" style="stop-color:#FFD78E"/>
	<stop  offset="0.5" style="stop-color:#FFDD9C"/>
	<stop  offset="0.75" style="stop-color:#FFD78E"/>
	<stop  offset="1" style="stop-color:#FFD479"/>
</linearGradient>
<rect x="22.467" y="79.253" fill="url(#SVGID_14_)" width="77.904" height="19.368"/>
<rect x="22.467" y="79.253" fill="none" stroke="#FFC000" stroke-width="1.56" stroke-miterlimit="10" width="77.904" height="19.368"/>
<g>
	<text transform="matrix(1 0 0 1 30.2856 91.9668)" font-family="'TimesNewRomanPSMT'" font-size="8.424">mRNA</text>
	<text transform="matrix(1 0 0 1 54.4893 91.9668)" font-family="'TimesNewRomanPSMT'" font-size="8.424"> </text>
</g>
<g>
	<text transform="matrix(1 0 0 1 56.9165 91.9668)" font-family="'TimesNewRomanPSMT'" font-size="8.424">e</text>
	<text transform="matrix(1 0 0 1 60.6563 91.9668)" font-family="'TimesNewRomanPSMT'" font-size="8.424">x</text>
	<text transform="matrix(1 0 0 1 64.8921 91.9668)" font-family="'TimesNewRomanPSMT'" font-size="8.424">p</text>
	<text transform="matrix(1 0 0 1 69.1216 91.9668)" font-family="'TimesNewRomanPSMT'" font-size="8.424">re</text>
	<text transform="matrix(1 0 0 1 75.6655 91.9668)" font-family="'TimesNewRomanPSMT'" font-size="8.424">s</text>
	<text transform="matrix(1 0 0 1 78.9692 91.9668)" font-family="'TimesNewRomanPSMT'" font-size="8.424">s</text>
	<text transform="matrix(1 0 0 1 82.2642 91.9668)" font-family="'TimesNewRomanPSMT'" font-size="8.424">i</text>
	<text transform="matrix(1 0 0 1 84.6309 91.9668)" font-family="'TimesNewRomanPSMT'" font-size="8.424">o</text>
	<text transform="matrix(1 0 0 1 88.8599 91.9668)" font-family="'TimesNewRomanPSMT'" font-size="8.424">n</text>
</g>
<linearGradient id="SVGID_15_" gradientUnits="userSpaceOnUse" x1="69.7788" y1="332.0576" x2="69.7788" y2="293.3193" gradientTransform="matrix(1 0 0 -1 -8.3599 427.0527)">
	<stop  offset="0" style="stop-color:#FFD479"/>
	<stop  offset="0.25" style="stop-color:#FFD78E"/>
	<stop  offset="0.5" style="stop-color:#FFDD9C"/>
	<stop  offset="0.75" style="stop-color:#FFD78E"/>
	<stop  offset="1" style="stop-color:#FFD479"/>
</linearGradient>
<rect x="22.467" y="114.365" fill="url(#SVGID_15_)" width="77.904" height="19.369"/>
<rect x="22.467" y="114.365" fill="none" stroke="#FFC000" stroke-width="1.56" stroke-miterlimit="10" width="77.904" height="19.369"/>
<g>
	<text transform="matrix(1 0 0 1 19.5811 127.2813)" font-family="'TimesNewRomanPSMT'" font-size="8.424">    </text>
	<text transform="matrix(1 0 0 1 32.6646 127.2813)" font-family="'TimesNewRomanPSMT'" font-size="8.424">RNA splicing</text>
	<text transform="matrix(1 0 0 1 52.2295 127.2813)" font-family="'TimesNewRomanPSMT'" font-size="8.424"> </text>
</g>
<line fill="none" stroke="#5B9BD5" stroke-width="1.56" stroke-miterlimit="10" x1="100.371" y1="20.468" x2="111.389" y2="20.468"/>
<line fill="none" stroke="#5B9BD5" stroke-width="1.56" stroke-miterlimit="10" x1="100.371" y1="54.596" x2="111.389" y2="54.596"/>
<line fill="none" stroke="#5B9BD5" stroke-width="1.56" stroke-miterlimit="10" x1="100.371" y1="87.788" x2="111.389" y2="87.788"/>
<line fill="none" stroke="#5B9BD5" stroke-width="1.56" stroke-miterlimit="10" x1="100.371" y1="123.043" x2="111.389" y2="123.043"/>
<line fill="none" stroke="#5B9BD5" stroke-width="1.56" stroke-miterlimit="10" x1="110.796" y1="157.792" x2="110.796" y2="20.138"/>
<line fill="none" stroke="#5B9BD5" stroke-width="1.56" stroke-miterlimit="10" x1="111.389" y1="73.459" x2="122.403" y2="73.459"/>
<line fill="none" stroke="#5B9BD5" stroke-width="1.56" stroke-miterlimit="10" x1="122.332" y1="179.153" x2="122.332" y2="72.668"/>
<line fill="none" stroke="#5B9BD5" stroke-width="1.56" stroke-miterlimit="10" x1="122.332" y1="179.153" x2="230.131" y2="178.938"/>
<polygon fill="none" stroke="#5B9BD5" stroke-width="1.56" stroke-miterlimit="10" points="176.473,197.158 174.673,200.758 
	172.873,197.158 "/>
<polyline fill="none" stroke="#5B9BD5" stroke-width="1.56" stroke-miterlimit="10" points="175.141,179.796 175.141,197.758 
	174.206,197.758 174.206,179.796 "/>
<linearGradient id="SVGID_16_" gradientUnits="userSpaceOnUse" x1="83.1602" y1="212.418" x2="242.25" y2="212.418" gradientTransform="matrix(1 0 0 -1 -8.3599 427.0527)">
	<stop  offset="0" style="stop-color:#FF94F9"/>
	<stop  offset="0.25" style="stop-color:#F5C8FF"/>
	<stop  offset="0.5" style="stop-color:#FFFFFF"/>
	<stop  offset="0.75" style="stop-color:#FFC7F7"/>
	<stop  offset="1" style="stop-color:#FF94F1"/>
</linearGradient>
<rect x="74.8" y="204.516" fill="url(#SVGID_16_)" width="159.09" height="20.238"/>
<rect x="74.8" y="204.1" fill="none" stroke="#FF32E0" stroke-width="1.56" stroke-miterlimit="10" width="159.09" height="20.238"/>
<g>
	<text transform="matrix(1 0 0 1 81.8599 218.3994)"><tspan x="0" y="0" font-family="'TimesNewRomanPSMT'" font-size="10">G</tspan><tspan x="7.182" y="0" font-family="'TimesNewRomanPSMT'" font-size="10">e</tspan><tspan x="11.62" y="0" font-family="'TimesNewRomanPSMT'" font-size="10">n</tspan><tspan x="16.65" y="0" font-family="'TimesNewRomanPSMT'" font-size="10">o</tspan><tspan x="21.67" y="0" font-family="'TimesNewRomanPSMT'" font-size="10">m</tspan><tspan x="29.289" y="0" font-family="'TimesNewRomanPSMT'" font-size="10">i</tspan><tspan x="32.097" y="0" font-family="'TimesNewRomanPSMT'" font-size="10">c</tspan><tspan x="36.535" y="0" font-family="'TimesNewRomanPSMT'" font-size="10">/</tspan><tspan x="39.344" y="0" font-family="'TimesNewRomanPSMT'" font-size="10">Pr</tspan><tspan x="48.235" y="0" font-family="'TimesNewRomanPSMT'" font-size="10">o</tspan><tspan x="53.255" y="0" font-family="'TimesNewRomanPSMT'" font-size="10">t</tspan><tspan x="56.063" y="0" font-family="'TimesNewRomanPSMT'" font-size="10">e</tspan><tspan x="60.502" y="0" font-family="'TimesNewRomanPSMT'" font-size="10">o</tspan><tspan x="65.542" y="0" font-family="'TimesNewRomanPSMT'" font-size="10">m</tspan><tspan x="73.16" y="0" font-family="'TimesNewRomanPSMT'" font-size="10">i</tspan><tspan x="75.969" y="0" font-family="'TimesNewRomanPSMT'" font-size="10">c</tspan><tspan x="80.407" y="0" font-family="'TimesNewRomanPSMT'" font-size="10"> </tspan><tspan x="82.717" y="0" font-family="'TimesNewRomanPSMT'" font-size="10">d</tspan><tspan x="87.737" y="0" font-family="'TimesNewRomanPSMT'" font-size="10">a</tspan><tspan x="92.176" y="0" font-family="'TimesNewRomanPSMT'" font-size="10">t</tspan><tspan x="94.984" y="0" font-family="'TimesNewRomanPSMT'" font-size="10">a</tspan><tspan x="99.422" y="0" font-family="'TimesNewRomanPSMT'" font-size="10"> </tspan><tspan x="101.833" y="0" font-family="'TimesNewRomanPSMT'" font-size="10">a</tspan><tspan x="106.271" y="0" font-family="'TimesNewRomanPSMT'" font-size="10">n</tspan><tspan x="111.301" y="0" font-family="'TimesNewRomanPSMT'" font-size="10">a</tspan><tspan x="115.739" y="0" font-family="'TimesNewRomanPSMT'" font-size="10">l</tspan><tspan x="118.548" y="0" font-family="'TimesNewRomanPSMT'" font-size="10">y</tspan><tspan x="123.428" y="0" font-family="'TimesNewRomanPSMT'" font-size="10">s</tspan><tspan x="127.339" y="0" font-family="'TimesNewRomanPSMT'" font-size="10">i</tspan><tspan x="130.147" y="0" font-family="'TimesNewRomanPSMT'" font-size="10">s</tspan></text>
</g>
<g>
	<text transform="matrix(1 0 0 1 407.2363 214.6348)"><tspan x="0" y="0" font-family="'TimesNewRomanPSMT'" font-size="10">C</tspan><tspan x="6.67" y="0" font-family="'TimesNewRomanPSMT'" font-size="10">li</tspan><tspan x="12.286" y="0" font-family="'TimesNewRomanPSMT'" font-size="10">n</tspan><tspan x="17.307" y="0" font-family="'TimesNewRomanPSMT'" font-size="10">i</tspan><tspan x="20.114" y="0" font-family="'TimesNewRomanPSMT'" font-size="10">ca</tspan><tspan x="28.991" y="0" font-family="'TimesNewRomanPSMT'" font-size="10">l</tspan><tspan x="31.81" y="0" font-family="'TimesNewRomanPSMT'" font-size="10"> </tspan><tspan x="34.029" y="0" font-family="'TimesNewRomanPSMT'" font-size="10">a</tspan><tspan x="38.469" y="0" font-family="'TimesNewRomanPSMT'" font-size="10">n</tspan><tspan x="43.508" y="0" font-family="'TimesNewRomanPSMT'" font-size="10">a</tspan><tspan x="47.947" y="0" font-family="'TimesNewRomanPSMT'" font-size="10">l</tspan><tspan x="50.755" y="0" font-family="'TimesNewRomanPSMT'" font-size="10">y</tspan><tspan x="55.625" y="0" font-family="'TimesNewRomanPSMT'" font-size="10">s</tspan><tspan x="59.537" y="0" font-family="'TimesNewRomanPSMT'" font-size="10">i</tspan><tspan x="62.345" y="0" font-family="'TimesNewRomanPSMT'" font-size="10">s</tspan></text>
</g>
<g>
	<text transform="matrix(1 0 0 1 237.2695 180.7959)"><tspan x="0" y="0" font-family="'TimesNewRomanPSMT'" font-size="10">snoRNA e</tspan><tspan x="41.943" y="0" font-family="'TimesNewRomanPSMT'" font-size="10">x</tspan><tspan x="46.983" y="0" font-family="'TimesNewRomanPSMT'" font-size="10">p</tspan><tspan x="52.003" y="0" font-family="'TimesNewRomanPSMT'" font-size="10">re</tspan><tspan x="59.772" y="0" font-family="'TimesNewRomanPSMT'" font-size="10">s</tspan><tspan x="63.693" y="0" font-family="'TimesNewRomanPSMT'" font-size="10">s</tspan><tspan x="67.605" y="0" font-family="'TimesNewRomanPSMT'" font-size="10">io</tspan><tspan x="75.443" y="0" font-family="'TimesNewRomanPSMT'" font-size="10">n</tspan><tspan x="80.403" y="0" font-family="'TimesNewRomanPSMT'" font-size="10"> </tspan><tspan x="82.624" y="0" font-family="'TimesNewRomanPSMT'" font-size="10">p</tspan><tspan x="87.653" y="0" font-family="'TimesNewRomanPSMT'" font-size="10">a</tspan><tspan x="92.092" y="0" font-family="'TimesNewRomanPSMT'" font-size="10">tt</tspan><tspan x="97.708" y="0" font-family="'TimesNewRomanPSMT'" font-size="10">ern</tspan></text>
</g>
<linearGradient id="SVGID_17_" gradientUnits="userSpaceOnUse" x1="69.186" y1="298.3643" x2="69.186" y2="259.626" gradientTransform="matrix(1 0 0 -1 -8.3599 427.0527)">
	<stop  offset="0" style="stop-color:#FFD479"/>
	<stop  offset="0.25" style="stop-color:#FFD78E"/>
	<stop  offset="0.5" style="stop-color:#FFDD9C"/>
	<stop  offset="0.75" style="stop-color:#FFD78E"/>
	<stop  offset="1" style="stop-color:#FFD479"/>
</linearGradient>
<rect x="21.874" y="148.058" fill="url(#SVGID_17_)" width="77.904" height="19.369"/>
<rect x="21.874" y="148.058" fill="none" stroke="#FFC000" stroke-width="1.56" stroke-miterlimit="10" width="77.904" height="19.369"/>
<g>
	<text transform="matrix(1 0 0 1 18.9878 160.9746)" font-family="'TimesNewRomanPSMT'" font-size="8.424">    </text>
	<text transform="matrix(1 0 0 1 27.4121 160.9746)" font-family="'TimesNewRomanPSMT'" font-size="8.424">P</text>
	<text transform="matrix(1 0 0 1 32.0713 160.9746)" font-family="'TimesNewRomanPSMT'" font-size="8.424">r</text>
	<text transform="matrix(1 0 0 1 34.8101 160.9746)" font-family="'TimesNewRomanPSMT'" font-size="8.424">o</text>
	<text transform="matrix(1 0 0 1 39.0386 160.9746)" font-family="'TimesNewRomanPSMT'" font-size="8.424">t</text>
	<text transform="matrix(1 0 0 1 41.3535 160.9746)" font-family="'TimesNewRomanPSMT'" font-size="8.424">e</text>
	<text transform="matrix(1 0 0 1 45.0928 160.9746)" font-family="'TimesNewRomanPSMT'" font-size="8.424">i</text>
	<text transform="matrix(1 0 0 1 47.4087 160.9746)" font-family="'TimesNewRomanPSMT'" font-size="8.424">n</text>
	<text transform="matrix(1 0 0 1 54.3193 160.9746)" font-family="'TimesNewRomanPSMT'" font-size="8.424"> expression </text>
</g>
<line fill="none" stroke="#5B9BD5" stroke-width="1.56" stroke-miterlimit="10" x1="99.778" y1="156.737" x2="110.796" y2="156.737"/>
</svg>
